<?xml version="1.0" encoding="UTF-8" standalone="no"?>
<!-- Generator: Adobe Fireworks CS6, Export SVG Extension by Aaron Beall (http://fireworks.abeall.com) . Version: 0.6.1  -->

<svg
   xmlns:dc="http://purl.org/dc/elements/1.1/"
   xmlns:cc="http://creativecommons.org/ns#"
   xmlns:rdf="http://www.w3.org/1999/02/22-rdf-syntax-ns#"
   xmlns:svg="http://www.w3.org/2000/svg"
   xmlns="http://www.w3.org/2000/svg"
   xmlns:sodipodi="http://sodipodi.sourceforge.net/DTD/sodipodi-0.dtd"
   xmlns:inkscape="http://www.inkscape.org/namespaces/inkscape"
   id="bivarProb-Page%201"
   viewBox="0 0 300 277"
   version="1.1"
   xml:space="preserve"
   x="0px"
   y="0px"
   width="300"
   height="277"
   inkscape:version="0.48.2 r9819"
   sodipodi:docname="bivarProb.svg"><metadata
   id="metadata73"><rdf:RDF><cc:Work
       rdf:about=""><dc:format>image/svg+xml</dc:format><dc:type
         rdf:resource="http://purl.org/dc/dcmitype/StillImage" /></cc:Work></rdf:RDF></metadata><defs
   id="defs71">
		
		
		
		
		
		
		
		
		
		
		
		
		
		
		
		
		
		
		
		
		
		
		
		
		
	</defs><sodipodi:namedview
   pagecolor="#ffffff"
   bordercolor="#666666"
   borderopacity="1"
   objecttolerance="10"
   gridtolerance="10"
   guidetolerance="10"
   inkscape:pageopacity="0"
   inkscape:pageshadow="2"
   inkscape:window-width="998"
   inkscape:window-height="851"
   id="namedview69"
   showgrid="false"
   inkscape:zoom="2"
   inkscape:cx="150"
   inkscape:cy="150"
   inkscape:window-x="0"
   inkscape:window-y="0"
   inkscape:window-maximized="0"
   inkscape:current-layer="bivarProb-Page%201" />
	<rect
   style="fill:#ffffff;stroke-width:1"
   id="rect4"
   stroke="#ffffff00"
   height="269"
   width="283"
   y="5"
   x="3" /><text
   id="text6"
   style="font-size:18px;text-align:left;color:#000000;fill:#000000;font-family:Arial"
   width="13"
   y="158"
   x="184.5"><tspan
     id="tspan8">x</tspan></text>


<text
   id="text10"
   style="font-size:18px;text-align:left;color:#000000;fill:#000000;font-family:Arial"
   width="13"
   y="267"
   x="141"><tspan
     id="tspan12">y</tspan></text>


<text
   id="text14"
   style="font-size:14px;text-align:left;color:#000000;fill:#000000;font-family:Arial"
   width="12"
   y="189"
   x="9"><tspan
     id="tspan16">0</tspan></text>


<text
   id="text18"
   style="font-size:14px;text-align:left;color:#000000;fill:#000000;font-family:Arial"
   width="12"
   y="175"
   x="11"><tspan
     id="tspan20">0</tspan></text>


<text
   id="text22"
   style="font-size:14px;text-align:left;color:#000000;fill:#000000;font-family:Arial"
   width="12"
   y="250"
   x="100.5"><tspan
     id="tspan24">1</tspan></text>


<text
   id="text26"
   style="font-size:14px;text-align:left;color:#000000;fill:#000000;font-family:Arial"
   width="12"
   y="157"
   x="161.5"><tspan
     id="tspan28">1</tspan></text>


<path
   style="fill:none;stroke:#000000;stroke-width:1"
   inkscape:connector-curvature="0"
   d="m 118.5,242.5 -8.5,2"
   id="Line" /><path
   style="fill:none;stroke:#000000;stroke-width:1"
   inkscape:connector-curvature="0"
   id="path31"
   d="m 20,176 7.5,4.5 -8.5,2" /><path
   style="fill:none;stroke:#000000;stroke-width:1"
   inkscape:connector-curvature="0"
   id="path33"
   d="m 171,157 7.5,4.5" /><path
   style="fill:none;stroke:#000000;stroke-width:1"
   inkscape:connector-curvature="0"
   d="m 28.5,40.5 0,129"
   id="Line2" /><path
   style="opacity:0.1804;fill:#cccccc;stroke:#000000;stroke-width:1"
   inkscape:connector-curvature="0"
   id="path36"
   d="M 28.5,76.9874 179.8262,58 l 0,103.8009 -151.3262,18.9875 0,-103.801 z" /><path
   style="opacity:0.8;fill:#cccccc;stroke:#000000;stroke-width:1"
   inkscape:connector-curvature="0"
   id="path38"
   d="M 271.5,223.0126 120.1737,242 28.5,180.7884 179.8262,161.8009 271.5,223.0126 z" /><path
   style="opacity:0.2;fill:#cccccc;stroke:#000000;stroke-width:1"
   inkscape:connector-curvature="0"
   id="path40"
   d="m 271.5,119.2116 0,103.801 -91.6738,-61.2117 0,-103.8009 91.6738,61.2116 z" /><path
   style="opacity:0.8;fill:#cccccc;stroke:#000000;stroke-width:1"
   inkscape:connector-curvature="0"
   id="path42"
   d="M 120.1737,138.1991 271.5,119.2116 179.8262,58 28.5,76.9874 l 91.6737,61.2117 z" /><path
   style="opacity:0.8;fill:#cccccc;stroke:#000000;stroke-width:1"
   inkscape:connector-curvature="0"
   id="path44"
   d="m 120.1737,242 0,-103.8009 L 28.5,76.9874 28.5,180.7884 120.1737,242 z" /><path
   style="opacity:0.8;fill:#b9b9c8;stroke:#000000;stroke-width:1"
   inkscape:connector-curvature="0"
   id="path46"
   d="M 120.1737,242.1991 271.5,223.2116 179.8262,162 120.1737,242.1991 z" /><path
   style="fill:none;stroke:#000000;stroke-width:1"
   inkscape:connector-curvature="0"
   id="path48"
   d="m 28,180.5 107,73" /><path
   style="fill:none;stroke:#acac9d;stroke-width:1"
   inkscape:connector-curvature="0"
   d="m 195,159.5 -24.5,3"
   id="Line3" /><text
   id="text51"
   style="font-size:18px;text-align:left;color:#000000;fill:#000000;font-family:Arial"
   width="44"
   y="32"
   x="14"><tspan
     id="tspan53">f(x,y)</tspan></text>


<path
   style="opacity:0.2;fill:#cccccc;stroke:#000000;stroke-width:1"
   inkscape:connector-curvature="0"
   id="path55"
   d="M 120.1737,138.1991 178.5,58.2116 l 0,103.801 -58.3263,79.9874 0,-103.8009 z" /><path
   style="opacity:0.8;fill:#ff0000;stroke:#000000;stroke-width:1"
   inkscape:connector-curvature="0"
   id="path57"
   d="M 120.1737,138.1991 271.5,119.2116 l 0,103.801 L 120.1737,242 l 0,-103.8009 z" /><path
   style="opacity:0.8;fill:#ff0000;stroke:#000000;stroke-width:1"
   inkscape:connector-curvature="0"
   id="path59"
   d="M 120.1737,138.1991 271.5,119.2116 179.8262,58 120.1737,138.1991 z" /><text
   id="text61"
   style="font-size:18px;text-align:left;color:#0000ff;fill:#0000ff;font-family:Arial"
   width="104"
   y="38"
   x="146"><tspan
     id="tspan63">P(X + Y &gt; 1)</tspan></text>


<g
   id="Group%3A%20Arrowheads"
   transform="translate(0,-23)">
			<path
   style="fill:none;stroke:#0000ff;stroke-width:2"
   inkscape:connector-curvature="0"
   d="m 196.5,63.5 -13,65"
   id="Line4" />
			<path
   style="fill:#0000ff"
   inkscape:connector-curvature="0"
   id="path67"
   d="m 181.1667,140.1664 -3.4127,-16.5915 5.746,4.9251 7.1976,-2.3364 -9.5309,14.0028 z" />
		</g>
</svg>