<?xml version="1.0" encoding="UTF-8" standalone="no"?>
<!-- Generator: Adobe Fireworks CS6, Export SVG Extension by Aaron Beall (http://fireworks.abeall.com) . Version: 0.6.1  -->

<svg
   xmlns:dc="http://purl.org/dc/elements/1.1/"
   xmlns:cc="http://creativecommons.org/ns#"
   xmlns:rdf="http://www.w3.org/1999/02/22-rdf-syntax-ns#"
   xmlns:svg="http://www.w3.org/2000/svg"
   xmlns="http://www.w3.org/2000/svg"
   xmlns:sodipodi="http://sodipodi.sourceforge.net/DTD/sodipodi-0.dtd"
   xmlns:inkscape="http://www.inkscape.org/namespaces/inkscape"
   id="univarProb-Page%201"
   viewBox="0 0 331 244"
   style="background-color:#ffffff00"
   version="1.1"
   xml:space="preserve"
   x="0px"
   y="0px"
   width="331px"
   height="244px"
   inkscape:version="0.48.2 r9819"
   sodipodi:docname="univarProb.svg"><metadata
   id="metadata63"><rdf:RDF><cc:Work
       rdf:about=""><dc:format>image/svg+xml</dc:format><dc:type
         rdf:resource="http://purl.org/dc/dcmitype/StillImage" /></cc:Work></rdf:RDF></metadata><defs
   id="defs61">
		
		
		
		
		
		
		
		
		
		
		
		
		
		
		
		
		
		
		
		
		
		
	</defs><sodipodi:namedview
   pagecolor="#ffffff"
   bordercolor="#666666"
   borderopacity="1"
   objecttolerance="10"
   gridtolerance="10"
   guidetolerance="10"
   inkscape:pageopacity="0"
   inkscape:pageshadow="2"
   inkscape:window-width="1046"
   inkscape:window-height="754"
   id="namedview59"
   showgrid="false"
   inkscape:zoom="2"
   inkscape:cx="165.5"
   inkscape:cy="122"
   inkscape:window-x="0"
   inkscape:window-y="0"
   inkscape:window-maximized="0"
   inkscape:current-layer="univarProb-Page%201" />
	<rect
   style="fill:#ffffff"
   id="rect4"
   height="193"
   width="307"
   y="28"
   x="15" /><path
   style="fill:none;stroke:#000000;stroke-width:1"
   inkscape:connector-curvature="0"
   d="m 15.5,28.5 0,193"
   id="Line" /><path
   style="fill:none;stroke:#000000;stroke-width:1"
   inkscape:connector-curvature="0"
   d="m 322.5,221.5 -307,0"
   id="Line2" /><text
   id="text8"
   style="font-size:17px;text-align:left;color:#000000;fill:#000000;font-family:Arial"
   width="30"
   y="18"
   x="6"><tspan
     id="tspan10">f(x)</tspan></text>
<path
   style="fill:#e2ecff"
   inkscape:connector-curvature="0"
   id="path12"
   d="m 16,221 c 8,0 34,-10.5 42,-24 6.8016,-11.4777 27,-68 33,-86 6,-18 17.983,-48.0004 40,-47.5 22,0.5 43,48 54.5,69.5 9.7234,18.1784 18.6682,56.8818 49.5,74.5 24.5,14 86,13.5 86,13.5 0,0 -313,0 -305,0 z" /><path
   style="fill:#ff0000"
   inkscape:connector-curvature="0"
   id="path14"
   d="m 132,63.5549 c 21.6346,1.8795 42.1744,48.2711 53.5,69.4451 9.7234,18.1784 18.6682,56.8818 49.5,74.5 24.5,14 86,13.5 86,13.5 0,0 -105,0 -189,0" /><path
   style="fill:#e2ecff"
   inkscape:connector-curvature="0"
   id="path16"
   d="m 189.005,140.3569 c 8.6796,19.8045 18.8621,51.6386 45.995,67.1431 24.5,14 86,13.5 86,13.5 0,0 -63.1535,0 -132,0" /><path
   style="fill:none;stroke:#000000;stroke-width:1"
   inkscape:connector-curvature="0"
   id="path18"
   d="m 16,221 c 8,0 34,-10.5 42,-24 6.8016,-11.4777 27,-68 33,-86 6,-18 17.983,-48.0004 40,-47.5 22,0.5 43,48 54.5,69.5 9.7234,18.1784 18.6682,56.8818 49.5,74.5 24.5,14 86,13.5 86,13.5 0,0 -313,0 -305,0 z" /><path
   style="fill:none;stroke:#000000;stroke-width:1"
   inkscape:connector-curvature="0"
   d="m 15.5,221.5 0,5"
   id="Line3" /><path
   style="fill:none;stroke:#000000;stroke-width:1"
   inkscape:connector-curvature="0"
   d="m 73.5,221.5 0,5"
   id="Line4" /><path
   style="fill:none;stroke:#000000;stroke-width:1"
   inkscape:connector-curvature="0"
   d="m 131.5,221.5 0,5"
   id="Line5" /><path
   style="fill:none;stroke:#000000;stroke-width:1"
   inkscape:connector-curvature="0"
   d="m 189.5,221.5 0,5"
   id="Line6" /><path
   style="fill:none;stroke:#000000;stroke-width:1"
   inkscape:connector-curvature="0"
   d="m 247.5,221.5 0,5"
   id="Line7" /><path
   style="fill:none;stroke:#000000;stroke-width:1"
   inkscape:connector-curvature="0"
   d="m 305.5,221.5 0,5"
   id="Line8" /><text
   id="text26"
   style="font-size:13px;text-align:left;color:#000000;fill:#000000;font-family:Arial"
   width="11"
   y="240"
   x="12"><tspan
     id="tspan28">0</tspan></text>
<text
   id="text30"
   style="font-size:13px;text-align:left;color:#000000;fill:#000000;font-family:Arial"
   width="11"
   y="240"
   x="70"><tspan
     id="tspan32">1</tspan></text>
<text
   id="text34"
   style="font-size:13px;text-align:left;color:#000000;fill:#000000;font-family:Arial"
   width="11"
   y="240"
   x="128"><tspan
     id="tspan36">2</tspan></text>
<text
   id="text38"
   style="font-size:13px;text-align:left;color:#000000;fill:#000000;font-family:Arial"
   width="11"
   y="240"
   x="186"><tspan
     id="tspan40">3</tspan></text>
<text
   id="text42"
   style="font-size:13px;text-align:left;color:#000000;fill:#000000;font-family:Arial"
   width="11"
   y="240"
   x="244"><tspan
     id="tspan44">4</tspan></text>
<text
   id="text46"
   style="font-size:13px;text-align:left;color:#000000;fill:#000000;font-family:Arial"
   width="11"
   y="240"
   x="302"><tspan
     id="tspan48">5</tspan></text>
<text
   id="text50"
   style="font-size:18px;text-align:left;color:#0000ff;fill:#0000ff;font-family:Arial"
   width="102"
   y="73"
   x="194"><tspan
     id="tspan52">P(2 &lt; X &lt; 3)</tspan></text>
<g
   id="Group%3A%20Arrowheads">
			<path
   style="fill:none;stroke:#0000ff;stroke-width:2"
   inkscape:connector-curvature="0"
   d="m 235.5,81.5 -66,56"
   id="Line9" />
			<path
   style="fill:#0000ff"
   inkscape:connector-curvature="0"
   id="path56"
   d="m 160.4281,145.1974 7.6249,-15.1257 1.447,7.4283 7.0931,2.6368 -16.165,5.0606 z" />
		</g>
	<g
   id="Layer%201">
	</g>
</svg>