<?xml version="1.0" encoding="UTF-8" standalone="no"?>
<!-- Generator: Adobe Fireworks CS6, Export SVG Extension by Aaron Beall (http://fireworks.abeall.com) . Version: 0.6.1  -->

<svg
   xmlns:dc="http://purl.org/dc/elements/1.1/"
   xmlns:cc="http://creativecommons.org/ns#"
   xmlns:rdf="http://www.w3.org/1999/02/22-rdf-syntax-ns#"
   xmlns:svg="http://www.w3.org/2000/svg"
   xmlns="http://www.w3.org/2000/svg"
   xmlns:sodipodi="http://sodipodi.sourceforge.net/DTD/sodipodi-0.dtd"
   xmlns:inkscape="http://www.inkscape.org/namespaces/inkscape"
   id="propnVenn-Page%201"
   viewBox="0 0 304 332"
   style="background-color:#ffffff00"
   version="1.1"
   xml:space="preserve"
   x="0px"
   y="0px"
   width="304px"
   height="332px"
   inkscape:version="0.48.2 r9819"
   sodipodi:docname="propnVenn.svg"><metadata
   id="metadata113"><rdf:RDF><cc:Work
       rdf:about=""><dc:format>image/svg+xml</dc:format><dc:type
         rdf:resource="http://purl.org/dc/dcmitype/StillImage" /></cc:Work></rdf:RDF></metadata><defs
   id="defs111">
		
		
		
		
		
		
		
		
		
		
		
		
		
		
		
		
		
		
		
		
		
		
		
		
		
		
		
		
		
		
		
		
		
		
		
		
		
		
	</defs><sodipodi:namedview
   pagecolor="#ffffff"
   bordercolor="#666666"
   borderopacity="1"
   objecttolerance="10"
   gridtolerance="10"
   guidetolerance="10"
   inkscape:pageopacity="0"
   inkscape:pageshadow="2"
   inkscape:window-width="1197"
   inkscape:window-height="950"
   id="namedview109"
   showgrid="false"
   inkscape:zoom="2"
   inkscape:cx="152"
   inkscape:cy="166"
   inkscape:window-x="0"
   inkscape:window-y="0"
   inkscape:window-maximized="0"
   inkscape:current-layer="propnVenn-Page%201" />
	<rect
   style="fill:#ffffff;stroke:#000000;stroke-width:1"
   id="rect4"
   height="258"
   width="258"
   y="48"
   x="42" /><text
   id="text6"
   style="font-size:16px;text-align:left;color:#b20000;fill:#b20000;font-family:Arial"
   width="13"
   y="53"
   x="21"><tspan
     id="tspan8">1</tspan></text>
<text
   id="text10"
   style="font-size:16px;text-align:left;color:#0000ff;fill:#0000ff;font-family:Arial"
   width="13"
   y="329"
   x="38"><tspan
     id="tspan12">1</tspan></text>
<text
   id="text14"
   style="font-size:16px;text-align:left;color:#b20000;fill:#b20000;font-family:Arial"
   width="13"
   y="311"
   x="22"><tspan
     id="tspan16">0</tspan></text>
<text
   id="text18"
   style="font-size:16px;text-align:left;color:#0000ff;fill:#0000ff;font-family:Arial"
   width="13"
   y="330"
   x="295"><tspan
     id="tspan20">0</tspan></text>
<path
   style="fill:none;stroke:#000000;stroke-width:1"
   inkscape:connector-curvature="0"
   d="m 42.5,48.5 -7,0"
   id="Line" /><path
   style="fill:none;stroke:#000000;stroke-width:1"
   inkscape:connector-curvature="0"
   d="m 42.5,312.5 0,-7"
   id="Line2" /><path
   style="fill:none;stroke:#000000;stroke-width:1"
   inkscape:connector-curvature="0"
   d="m 299.5,312.5 0,-7"
   id="Line3" /><path
   style="fill:none;stroke:#000000;stroke-width:1"
   inkscape:connector-curvature="0"
   d="m 42.5,305.5 -7,0"
   id="Line4" /><path
   style="fill:none;stroke:#000000;stroke-width:1"
   inkscape:connector-curvature="0"
   d="m 190.5,48.5 0,257"
   id="Line5" /><text
   id="text27"
   style="font-size:16px;text-align:left;color:#0000ff;fill:#0000ff;font-family:Arial"
   width="16"
   y="39"
   x="101"><tspan
     id="tspan29">A</tspan></text>
<text
   id="text31"
   style="font-size:16px;text-align:left;color:#0000ff;fill:#0000ff;font-family:Arial"
   width="16"
   y="40"
   x="231"><tspan
     id="tspan33">A</tspan></text>
<path
   style="fill:none;stroke:#000000;stroke-width:1"
   inkscape:connector-curvature="0"
   d="m 230.5,26.5 13,0"
   id="Line6" /><text
   id="text36"
   style="font-size:16px;text-align:left;color:#0000ff;fill:#0000ff;font-family:Arial"
   width="147"
   y="14"
   x="99"><tspan
     id="tspan38">Marginal probs for A</tspan></text>
<text
   id="text40"
   style="font-size:16px;text-align:left;color:#b20000;fill:#b20000;font-family:Arial"
   width="24"
   y="14.699219"
   x="-289.91797"
   transform="matrix(0,-1,1,0,0,0)"><tspan
     id="tspan42">Conditional probs for B, given A</tspan></text>
<text
   id="text44"
   style="font-size:16px;text-align:left;color:#b20000;fill:#b20000;font-family:Arial"
   width="59"
   y="137"
   x="57"><tspan
     id="tspan46">P(B | A)</tspan></text>
<text
   id="text48"
   style="font-size:16px;text-align:left;color:#b20000;fill:#b20000;font-family:Arial"
   width="59"
   y="263"
   x="57"><tspan
     id="tspan50">P(B | A)</tspan></text>
<text
   id="text52"
   style="font-size:16px;text-align:left;color:#b20000;fill:#b20000;font-family:Arial"
   width="59"
   y="246"
   x="205"><tspan
     id="tspan54">P(B | A)</tspan></text>
<text
   id="text56"
   style="font-size:16px;text-align:left;color:#b20000;fill:#b20000;font-family:Arial"
   width="59"
   y="116"
   x="205"><tspan
     id="tspan58">P(B | A)</tspan></text>
<text
   id="text60"
   style="font-size:16px;text-align:left;color:#0000ff;fill:#0000ff;font-family:Arial"
   width="36"
   y="75"
   x="107"><tspan
     id="tspan62">P(A)</tspan></text>
<text
   id="text64"
   style="font-size:16px;text-align:left;color:#0000ff;fill:#0000ff;font-family:Arial"
   width="36"
   y="75"
   x="232"><tspan
     id="tspan66">P(A)</tspan></text>
<path
   style="fill:none;stroke:#0000ff;stroke-width:1"
   inkscape:connector-curvature="0"
   d="m 61.9529,56.5 116.0942,0"
   id="Line7" /><path
   style="fill:#0000ff"
   inkscape:connector-curvature="0"
   id="path69"
   d="m 54,56.5 c 3.3081,-1.4405 7.4125,-3.8982 9.9561,-6.5 l -2.0032,6.5 2.0032,6.5 C 61.4125,60.3982 57.3081,57.9397 54,56.5 z" /><path
   style="fill:#0000ff"
   inkscape:connector-curvature="0"
   id="path71"
   d="m 186,56.5 c -3.3081,1.4405 -7.4125,3.8982 -9.9561,6.5 l 2.0032,-6.5 -2.0032,-6.5 c 2.5436,2.6018 6.648,5.0603 9.9561,6.5 z" /><path
   style="fill:none;stroke:#0000ff;stroke-width:1"
   inkscape:connector-curvature="0"
   d="m 205.9758,56.5 83.0484,0"
   id="Line8" /><path
   style="fill:#0000ff"
   inkscape:connector-curvature="0"
   id="path74"
   d="m 201,56.5 c 3.3177,-1.4405 7.4339,-3.8982 9.9849,-6.5 l -2.0091,6.5 2.0091,6.5 C 208.4339,60.3982 204.3177,57.9397 201,56.5 z" /><path
   style="fill:#0000ff"
   inkscape:connector-curvature="0"
   id="path76"
   d="m 297,56.5 c -3.3177,1.4405 -7.4339,3.8982 -9.9849,6.5 l 2.0091,-6.5 -2.0091,-6.5 c 2.551,2.6018 6.6672,5.0603 9.9849,6.5 z" /><path
   style="fill:none;stroke:#0000ff;stroke-width:1"
   inkscape:connector-curvature="0"
   d="m 247.5,61.5 12,0"
   id="Line9" /><path
   style="fill:none;stroke:#b20000;stroke-width:1"
   inkscape:connector-curvature="0"
   d="m 72.5,249.5 12,0"
   id="Line10" /><path
   style="fill:none;stroke:#b20000;stroke-width:1"
   inkscape:connector-curvature="0"
   d="m 219.5,231.5 12,0"
   id="Line11" /><path
   style="fill:none;stroke:#b20000;stroke-width:1"
   inkscape:connector-curvature="0"
   d="m 243.5,231.5 12,0"
   id="Line12" /><path
   style="fill:none;stroke:#b20000;stroke-width:1"
   inkscape:connector-curvature="0"
   d="m 243.5,102.5 12,0"
   id="Line13" /><path
   style="fill:none;stroke:#000000;stroke-width:1"
   inkscape:connector-curvature="0"
   d="m 42.5,211.5 148,0"
   id="Line14" /><path
   style="fill:none;stroke:#000000;stroke-width:1"
   inkscape:connector-curvature="0"
   d="m 190.5,173.5 109,0"
   id="Line15" /><g
   id="Group%3A%20Arrowheads">
			<path
   style="fill:none;stroke:#b81200;stroke-width:1"
   inkscape:connector-curvature="0"
   d="m 51.5,59.5 0,141"
   id="Line16" />
			<path
   style="fill:#b81200"
   inkscape:connector-curvature="0"
   id="path87"
   d="m 51.5,53.7133 c 1.4405,3.655 3.8982,8.1897 6.5,11 L 51.5,62.5 45,64.7133 c 2.6018,-2.8103 5.0603,-7.345 6.5,-11 z" />
			<path
   style="fill:#b81200"
   inkscape:connector-curvature="0"
   id="path89"
   d="m 51.5,209.2867 c -1.4405,-3.655 -3.8982,-8.1897 -6.5,-11 l 6.5,2.2133 6.5,-2.2133 c -2.6018,2.8103 -5.0603,7.345 -6.5,11 z" />
		</g><g
   id="Group%3A%20Arrowheads2">
			<path
   style="fill:none;stroke:#b81200;stroke-width:1"
   inkscape:connector-curvature="0"
   d="m 51.5,223.5 0,71"
   id="Line17" />
			<path
   style="fill:#b81200"
   inkscape:connector-curvature="0"
   id="path93"
   d="m 51.5,215.7133 c 1.4405,3.655 3.8982,8.1897 6.5,11 L 51.5,224.5 45,226.7133 c 2.6018,-2.8103 5.0603,-7.345 6.5,-11 z" />
			<path
   style="fill:#b81200"
   inkscape:connector-curvature="0"
   id="path95"
   d="m 51.5,303.2867 c -1.4405,-3.655 -3.8982,-8.1897 -6.5,-11 l 6.5,2.2133 6.5,-2.2133 c -2.6018,2.8103 -5.0603,7.345 -6.5,11 z" />
		</g><g
   id="Group%3A%20Arrowheads3">
			<path
   style="fill:none;stroke:#b81200;stroke-width:1"
   inkscape:connector-curvature="0"
   d="m 199.5,185.5 0,109"
   id="Line18" />
			<path
   style="fill:#b81200"
   inkscape:connector-curvature="0"
   id="path99"
   d="m 199.5,177.7133 c 1.4405,3.655 3.8982,8.1897 6.5,11 l -6.5,-2.2133 -6.5,2.2133 c 2.6018,-2.8103 5.0603,-7.345 6.5,-11 z" />
			<path
   style="fill:#b81200"
   inkscape:connector-curvature="0"
   id="path101"
   d="m 199.5,303.2867 c -1.4405,-3.655 -3.8982,-8.1897 -6.5,-11 l 6.5,2.2133 6.5,-2.2133 c -2.6018,2.8103 -5.0603,7.345 -6.5,11 z" />
		</g><g
   id="Group%3A%20Arrowheads4">
			<path
   style="fill:none;stroke:#b81200;stroke-width:1"
   inkscape:connector-curvature="0"
   d="m 199.5,63.5 0,99"
   id="Line19" />
			<path
   style="fill:#b81200"
   inkscape:connector-curvature="0"
   id="path105"
   d="m 199.5,56.7133 c 1.4405,3.655 3.8982,8.1897 6.5,11 L 199.5,65.5 193,67.7133 c 2.6018,-2.8103 5.0603,-7.345 6.5,-11 z" />
			<path
   style="fill:#b81200"
   inkscape:connector-curvature="0"
   id="path107"
   d="m 199.5,171.2867 c -1.4405,-3.655 -3.8982,-8.1897 -6.5,-11 l 6.5,2.2133 6.5,-2.2133 c -2.6018,2.8103 -5.0603,7.345 -6.5,11 z" />
		</g>
</svg>