<?xml version="1.0" encoding="UTF-8" standalone="no"?>
<!-- Generator: Adobe Fireworks CS6, Export SVG Extension by Aaron Beall (http://fireworks.abeall.com) . Version: 0.6.1  -->

<svg
   xmlns:dc="http://purl.org/dc/elements/1.1/"
   xmlns:cc="http://creativecommons.org/ns#"
   xmlns:rdf="http://www.w3.org/1999/02/22-rdf-syntax-ns#"
   xmlns:svg="http://www.w3.org/2000/svg"
   xmlns="http://www.w3.org/2000/svg"
   xmlns:sodipodi="http://sodipodi.sourceforge.net/DTD/sodipodi-0.dtd"
   xmlns:inkscape="http://www.inkscape.org/namespaces/inkscape"
   id="Untitled-Page%201"
   viewBox="0 0 276 114"
   style="background-color:#ffffff00"
   version="1.1"
   xml:space="preserve"
   x="0px"
   y="0px"
   width="276px"
   height="114px"
   inkscape:version="0.48.2 r9819"
   sodipodi:docname="errorBounds.svg"><metadata
   id="metadata61"><rdf:RDF><cc:Work
       rdf:about=""><dc:format>image/svg+xml</dc:format><dc:type
         rdf:resource="http://purl.org/dc/dcmitype/StillImage" /></cc:Work></rdf:RDF></metadata><defs
   id="defs59">
		
		
		
		
		
		
		
		
		
		
		
		
		
		
		
		
		
	</defs><sodipodi:namedview
   pagecolor="#ffffff"
   bordercolor="#666666"
   borderopacity="1"
   objecttolerance="10"
   gridtolerance="10"
   guidetolerance="10"
   inkscape:pageopacity="0"
   inkscape:pageshadow="2"
   inkscape:window-width="937"
   inkscape:window-height="559"
   id="namedview57"
   showgrid="false"
   inkscape:zoom="2"
   inkscape:cx="138"
   inkscape:cy="57"
   inkscape:window-x="0"
   inkscape:window-y="0"
   inkscape:window-maximized="0"
   inkscape:current-layer="Untitled-Page%201" />
	<rect
   style="fill:#ffffff;stroke:#ffffff;stroke-width:1"
   id="rect4"
   height="81"
   width="276"
   y="5"
   x="0" /><g
   id="g6">
			<path
   style="fill:#ff99cc;stroke:#ff99cc;stroke-width:1"
   inkscape:connector-curvature="0"
   id="path8"
   d="m 0,84 c 6.25,-0.5 24.75,-3.5 38,-8 0.2367,-0.0804 0,9 0,9 L 0,85 0,84 z" />
			<path
   style="fill:#0066ff;stroke:#0066ff;stroke-width:1"
   inkscape:connector-curvature="0"
   id="path10"
   d="m 39,85 0,-10 c 11,-4.25 31,-16.5 39,-23 8,-6.5 22,-19.5 31,-25 9,-5.5 15,-8.25 21.25,-9.5 C 133.4744,16.8551 139,17 139,17 l -1,68 -99,0 z" />
			<path
   style="fill:none;stroke:#0066ff;stroke-width:1"
   inkscape:connector-curvature="0"
   d="m 38.5,84.5 0,-10"
   id="Line" />
		</g><g
   id="g13">
			<path
   style="fill:#ff99cc;stroke:#ff99cc;stroke-width:1"
   inkscape:connector-curvature="0"
   id="path15"
   d="m 277,84 c -6.25,-0.5 -24.75,-3.5 -38,-8 -0.2367,-0.0804 0,9 0,9 l 38,0 0,-1 z" />
			<path
   style="fill:#0066ff;stroke:#0066ff;stroke-width:1"
   inkscape:connector-curvature="0"
   id="path17"
   d="m 238,85 0,-10 C 227,70.75 207,58.5 199,52 191,45.5 177,32.5 168,27 159,21.5 153,18.75 146.75,17.5 143.5256,16.8551 138,17 138,17 l 1,68 99,0 z" />
			<path
   style="fill:none;stroke:#0066ff;stroke-width:1"
   inkscape:connector-curvature="0"
   d="m 238.5,84.5 0,-10"
   id="Line2" />
		</g><path
   style="fill:none;stroke:#6600ff;stroke-width:1"
   inkscape:connector-curvature="0"
   d="m 138.5,85.5 0,-69"
   id="Line3" /><path
   style="fill:none;stroke:#000000;stroke-width:1"
   inkscape:connector-curvature="0"
   d="m -0.5,85.5 277,0"
   id="Line4" /><text
   id="text22"
   style="font-size:14px;text-align:left;color:#ffffff;fill:#ffffff;font-family:Arial"
   width="110"
   y="72"
   x="86"><tspan
     id="tspan24">probability 0.95</tspan></text>
<path
   style="fill:none;stroke:#000000;stroke-width:1"
   inkscape:connector-curvature="0"
   d="m 12.5,85.5 0,5"
   id="Line5" /><path
   style="fill:none;stroke:#000000;stroke-width:1"
   inkscape:connector-curvature="0"
   d="m 75.5,85.5 0,5"
   id="Line6" /><path
   style="fill:none;stroke:#000000;stroke-width:1"
   inkscape:connector-curvature="0"
   d="m 138.5,85.5 0,5"
   id="Line7" /><path
   style="fill:none;stroke:#000000;stroke-width:1"
   inkscape:connector-curvature="0"
   d="m 200.5,85.5 0,5"
   id="Line8" /><path
   style="fill:none;stroke:#000000;stroke-width:1"
   inkscape:connector-curvature="0"
   d="m 263.5,85.5 0,5"
   id="Line9" /><text
   id="text31"
   style="font-size:13px;text-align:center;color:#000000;fill:#000000;font-family:Arial"
   width="112"
   y="110"
   x="164"><tspan
     id="tspan33">Error distribution</tspan></text>
<text
   id="text35"
   style="font-size:13px;text-align:center;color:#000000;fill:#000000;font-family:Arial"
   width="12"
   y="102"
   x="135"><tspan
     id="tspan37">0</tspan></text>
<text
   id="text39"
   style="font-size:16px;font-weight:bold;text-align:center;color:#ff0000;fill:#ff0000;font-family:Times New Roman"
   width="34"
   y="28"
   x="26"><tspan
     id="tspan41">– e*</tspan></text>
<text
   id="text43"
   style="font-size:16px;font-weight:bold;text-align:center;color:#ff0000;fill:#ff0000;font-family:Times New Roman"
   width="21"
   y="28"
   x="236"><tspan
     id="tspan45">e*</tspan></text>
<g
   id="g47">
			<path
   style="fill:none;stroke:#ff0000;stroke-width:1"
   inkscape:connector-curvature="0"
   d="m 38.5,36.5 0,38"
   id="Line10" />
			<path
   style="fill:none;stroke:#ff0000;stroke-width:1"
   inkscape:connector-curvature="0"
   d="m 42,70 -3.5,3.5"
   id="Line11" />
			<path
   style="fill:none;stroke:#ff0000;stroke-width:1"
   inkscape:connector-curvature="0"
   d="M 34.5,70 38,73.5"
   id="Line12" />
		</g><g
   id="g52">
			<path
   style="fill:none;stroke:#ff0000;stroke-width:1"
   inkscape:connector-curvature="0"
   d="m 238.5,36.5 0,38"
   id="Line13" />
			<path
   style="fill:none;stroke:#ff0000;stroke-width:1"
   inkscape:connector-curvature="0"
   d="m 242,70 -3.5,3.5"
   id="Line14" />
			<path
   style="fill:none;stroke:#ff0000;stroke-width:1"
   inkscape:connector-curvature="0"
   d="m 234.5,70 3.5,3.5"
   id="Line15" />
		</g>
</svg>