<?xml version="1.0" encoding="UTF-8" standalone="no"?>
<!-- Generator: Adobe Fireworks CS6, Export SVG Extension by Aaron Beall (http://fireworks.abeall.com) . Version: 0.6.1  -->

<svg
   xmlns:dc="http://purl.org/dc/elements/1.1/"
   xmlns:cc="http://creativecommons.org/ns#"
   xmlns:rdf="http://www.w3.org/1999/02/22-rdf-syntax-ns#"
   xmlns:svg="http://www.w3.org/2000/svg"
   xmlns="http://www.w3.org/2000/svg"
   xmlns:sodipodi="http://sodipodi.sourceforge.net/DTD/sodipodi-0.dtd"
   xmlns:inkscape="http://www.inkscape.org/namespaces/inkscape"
   id="Untitled-Page%201"
   viewBox="0 0 276 114"
   style="background-color:#ffffff00"
   version="1.1"
   xml:space="preserve"
   x="0px"
   y="0px"
   width="276px"
   height="114px"
   inkscape:version="0.48.2 r9819"
   sodipodi:docname="errorBounds3.svg"><metadata
   id="metadata83"><rdf:RDF><cc:Work
       rdf:about=""><dc:format>image/svg+xml</dc:format><dc:type
         rdf:resource="http://purl.org/dc/dcmitype/StillImage" /></cc:Work></rdf:RDF></metadata><defs
   id="defs81">
		
		
		
		
		
		
		
		
		
		
		
		
		
		
		
		
		
		
		
	</defs><sodipodi:namedview
   pagecolor="#ffffff"
   bordercolor="#666666"
   borderopacity="1"
   objecttolerance="10"
   gridtolerance="10"
   guidetolerance="10"
   inkscape:pageopacity="0"
   inkscape:pageshadow="2"
   inkscape:window-width="921"
   inkscape:window-height="511"
   id="namedview79"
   showgrid="false"
   inkscape:zoom="2"
   inkscape:cx="138"
   inkscape:cy="57"
   inkscape:window-x="0"
   inkscape:window-y="0"
   inkscape:window-maximized="0"
   inkscape:current-layer="Untitled-Page%201" />
	<rect
   style="fill:#ffffff;stroke:#ffffff;stroke-width:1"
   id="rect4"
   height="81"
   width="276"
   y="5"
   x="0" /><g
   id="g6">
			<path
   style="fill:#ff99cc;stroke:#ff99cc;stroke-width:1"
   inkscape:connector-curvature="0"
   id="path8"
   d="m 277,84 c -6.25,-0.5 -24.75,-3.5 -38,-8 -0.2367,-0.0804 0,9 0,9 l 38,0 0,-1 z" />
			<path
   style="fill:#ff97cd;stroke:#ff97cd;stroke-width:1"
   inkscape:connector-curvature="0"
   id="path10"
   d="m 228,85 11,0 0,-9 c -2.8507,-1.1014 -7.3059,-3.7401 -11,-5.6768" />
			<path
   style="fill:#0066ff;stroke:#0066ff;stroke-width:1"
   inkscape:connector-curvature="0"
   id="path12"
   d="M 228,70.3232 C 217.4397,64.7869 204.9268,56.8155 199,52 191,45.5 177,32.5 168,27 159,21.5 153,18.75 146.75,17.5 143.5256,16.8551 138,17 138,17 l 1,68 89,0" />
			<path
   style="fill:none;stroke:#ff97cd;stroke-width:1"
   inkscape:connector-curvature="0"
   d="m 228.5,85.5 0,-16"
   id="Line" />
		</g><g
   id="g15">
			<path
   style="fill:#ff99cc;stroke:#ff99cc;stroke-width:1"
   inkscape:connector-curvature="0"
   id="path17"
   d="m -1,84 c 6.25,-0.5 24.75,-3.5 38,-8 0.2367,-0.0804 0,9 0,9 l -38,0 0,-1 z" />
			<path
   style="fill:#ff97cd;stroke:#ff97cd;stroke-width:1"
   inkscape:connector-curvature="0"
   id="path19"
   d="m 48,85 -11,0 0,-9 c 2.8507,-1.1014 7.3059,-3.7401 11,-5.6768" />
			<path
   style="fill:#0066ff;stroke:#0066ff;stroke-width:1"
   inkscape:connector-curvature="0"
   id="path21"
   d="M 48,70.3232 C 58.5603,64.7869 71.0732,56.8155 77,52 85,45.5 99,32.5 108,27 117,21.5 123,18.75 129.25,17.5 132.4744,16.8551 138,17 138,17 l 0,68 -90,0" />
			<path
   style="fill:none;stroke:#ff97cd;stroke-width:1"
   inkscape:connector-curvature="0"
   d="m 47.5,85.5 0,-16"
   id="Line2" />
		</g><path
   style="fill:none;stroke:#6600ff;stroke-width:1"
   inkscape:connector-curvature="0"
   d="m 138.5,85.5 0,-69"
   id="Line3" /><path
   style="fill:none;stroke:#000000;stroke-width:1"
   inkscape:connector-curvature="0"
   d="m -0.5,85.5 277,0"
   id="Line4" /><text
   id="text26"
   style="font-size:14px;text-align:left;color:#ffffff;fill:#ffffff;font-family:Arial"
   width="110"
   y="72"
   x="92"><tspan
     id="tspan28">probability 0.90</tspan></text>
<path
   style="fill:none;stroke:#000000;stroke-width:1"
   inkscape:connector-curvature="0"
   d="m 12.5,85.5 0,5"
   id="Line5" /><path
   style="fill:none;stroke:#000000;stroke-width:1"
   inkscape:connector-curvature="0"
   d="m 75.5,85.5 0,5"
   id="Line6" /><path
   style="fill:none;stroke:#000000;stroke-width:1"
   inkscape:connector-curvature="0"
   d="m 138.5,85.5 0,5"
   id="Line7" /><path
   style="fill:none;stroke:#000000;stroke-width:1"
   inkscape:connector-curvature="0"
   d="m 200.5,85.5 0,5"
   id="Line8" /><path
   style="fill:none;stroke:#000000;stroke-width:1"
   inkscape:connector-curvature="0"
   d="m 263.5,85.5 0,5"
   id="Line9" /><text
   id="text35"
   style="font-size:13px;text-align:center;color:#000000;fill:#000000;font-family:Arial"
   width="112"
   y="109"
   x="164"><tspan
     id="tspan37">Error distribution</tspan></text>
<text
   id="text39"
   style="font-size:13px;text-align:center;color:#000000;fill:#000000;font-family:Arial"
   width="12"
   y="102"
   x="135"><tspan
     id="tspan41">0</tspan></text>
<g
   id="g43"
   transform="matrix(1,0,0,0.93505398,0,4.1890182)">
			<path
   style="fill:none;stroke:#ff0000;stroke-width:1.03414547"
   inkscape:connector-curvature="0"
   d="m 48.5,26.5 0,38"
   id="Line10" />
			<path
   style="fill:none;stroke:#ff0000;stroke-width:1.03414547"
   inkscape:connector-curvature="0"
   d="m 52,60 -3.5,3.5"
   id="Line11" />
			<path
   style="fill:none;stroke:#ff0000;stroke-width:1.03414547"
   inkscape:connector-curvature="0"
   d="M 44.5,60 48,63.5"
   id="Line12" />
		</g><g
   id="g48">
			<path
   style="fill:none;stroke:#ff0000;stroke-width:1"
   inkscape:connector-curvature="0"
   d="m 228.5,29.5 0,38"
   id="Line13" />
			<path
   style="fill:none;stroke:#ff0000;stroke-width:1"
   inkscape:connector-curvature="0"
   d="m 232,63 -3.5,3.5"
   id="Line14" />
			<path
   style="fill:none;stroke:#ff0000;stroke-width:1"
   inkscape:connector-curvature="0"
   d="m 224.5,63 3.5,3.5"
   id="Line15" />
		</g><text
   id="text53"
   style="font-size:16px;font-weight:bold;text-align:center;color:#ff0000;fill:#ff0000;font-family:Times New Roman"
   width="101"
   y="26"
   x="1">– <tspan
   id="tspan57"
   style="font-weight:normal;font-family:Arial">1.645 SE(θ</tspan><tspan
   id="tspan61"
   style="font-weight:normal;font-family:Arial;-inkscape-font-specification:Arial">)</tspan></text>
<text
   id="text63"
   style="font-size:16px;text-align:center;color:#ff0000;fill:#ff0000;font-family:Arial"
   width="88"
   y="26"
   x="191">1.645 SE(θ)</text>
<text
   id="text71"
   style="font-size:16px;text-align:center;color:#ff0000;fill:#ff0000;font-family:Arial"
   width="12"
   y="18"
   x="85"><tspan
     id="tspan73">^</tspan></text>
<text
   id="text75"
   style="font-size:16px;text-align:center;color:#ff0000;fill:#ff0000;font-family:Arial"
   width="12"
   y="18"
   x="262"><tspan
     id="tspan77">^</tspan></text>

</svg>