<?xml version="1.0" encoding="UTF-8" standalone="no"?>
<!-- Created with Inkscape (http://www.inkscape.org/) -->

<svg
   xmlns:dc="http://purl.org/dc/elements/1.1/"
   xmlns:cc="http://creativecommons.org/ns#"
   xmlns:rdf="http://www.w3.org/1999/02/22-rdf-syntax-ns#"
   xmlns:svg="http://www.w3.org/2000/svg"
   xmlns="http://www.w3.org/2000/svg"
   xmlns:sodipodi="http://sodipodi.sourceforge.net/DTD/sodipodi-0.dtd"
   xmlns:inkscape="http://www.inkscape.org/namespaces/inkscape"
   id="svg6088"
   version="1.1"
   inkscape:version="0.48.1 r9760"
   width="255"
   height="206"
   sodipodi:docname="tickCross.gif">
  <metadata
     id="metadata6094">
    <rdf:RDF>
      <cc:Work
         rdf:about="">
        <dc:format>image/svg+xml</dc:format>
        <dc:type
           rdf:resource="http://purl.org/dc/dcmitype/StillImage" />
        <dc:title></dc:title>
      </cc:Work>
    </rdf:RDF>
  </metadata>
  <defs
     id="defs6092" />
  <sodipodi:namedview
     pagecolor="#ffffff"
     bordercolor="#666666"
     borderopacity="1"
     objecttolerance="10"
     gridtolerance="10"
     guidetolerance="10"
     inkscape:pageopacity="0"
     inkscape:pageshadow="2"
     inkscape:window-width="1170"
     inkscape:window-height="929"
     id="namedview6090"
     showgrid="false"
     inkscape:zoom="3"
     inkscape:cx="140.83333"
     inkscape:cy="103"
     inkscape:window-x="0"
     inkscape:window-y="0"
     inkscape:window-maximized="0"
     inkscape:current-layer="svg6088" />
  <rect
     style="fill:#ffffff;fill-opacity:1;stroke:#000000;stroke-width:0.99032503;stroke-miterlimit:4;stroke-dasharray:none"
     id="rect6196"
     width="254.00967"
     height="170.00967"
     x="0.49516252"
     y="0.49515671" />
  <path
     style="fill:#005500;stroke:none"
     d="m 13,14 c 4.999999,0 2,5.666667 3,7.000001 2.356135,0.213893 3.993381,-2.324028 7,-5.666668 3,-3.666666 7.666666,-8.666666 9.333333,-7 2.333333,2.333334 -3,7.333335 -7.333334,11.666668 C 20.666666,24.333334 18,28.333334 14.333333,28.333334 c -4,0 -4,-3.666667 -4.333333,-7 C 9.666667,18 10.333333,14 13,14 z"
     id="path6098"
     inkscape:connector-curvature="0"
     sodipodi:nodetypes="sccsssss" />
  <path
     sodipodi:nodetypes="sccsssss"
     inkscape:connector-curvature="0"
     id="path6100"
     d="m 45,14 c 4.999999,0 2,5.666667 3,7.000001 2.356135,0.213893 3.993381,-2.324028 7,-5.666668 3,-3.666666 7.666666,-8.666666 9.333333,-7 2.333333,2.333334 -3,7.333335 -7.333334,11.666668 C 52.666666,24.333334 50,28.333334 46.333333,28.333334 c -4,0 -4,-3.666667 -4.333333,-7 C 41.666667,18 42.333333,14 45,14 z"
     style="fill:#005500;stroke:none" />
  <path
     style="fill:#005500;stroke:none"
     d="m 78,14 c 4.999999,0 2,5.666667 3,7.000001 2.356135,0.213893 3.993381,-2.324028 7,-5.666668 3,-3.666666 7.666666,-8.666666 9.333333,-7 2.333333,2.333334 -3,7.333335 -7.333334,11.666668 C 85.666666,24.333334 83,28.333334 79.333333,28.333334 c -4,0 -4,-3.666667 -4.333333,-7 C 74.666667,18 75.333333,14 78,14 z"
     id="path6102"
     inkscape:connector-curvature="0"
     sodipodi:nodetypes="sccsssss" />
  <path
     sodipodi:nodetypes="sccsssss"
     inkscape:connector-curvature="0"
     id="path6104"
     d="m 110,14 c 5,0 2,5.666667 3,7.000001 2.35613,0.213893 3.99338,-2.324028 7,-5.666668 3,-3.666666 7.66667,-8.666666 9.33333,-7 2.33334,2.333334 -3,7.333335 -7.33333,11.666668 -4.33333,4.333333 -7,8.333333 -10.66667,8.333333 -4,0 -4,-3.666667 -4.33333,-7 C 106.66667,18 107.33333,14 110,14 z"
     style="fill:#005500;stroke:none" />
  <path
     style="fill:#005500;stroke:none"
     d="m 143,14 c 5,0 2,5.666667 3,7.000001 2.35613,0.213893 3.99338,-2.324028 7,-5.666668 3,-3.666666 7.66667,-8.666666 9.33333,-7 2.33334,2.333334 -3,7.333335 -7.33333,11.666668 -4.33333,4.333333 -7,8.333333 -10.66667,8.333333 -4,0 -4,-3.666667 -4.33333,-7 C 139.66667,18 140.33333,14 143,14 z"
     id="path6106"
     inkscape:connector-curvature="0"
     sodipodi:nodetypes="sccsssss" />
  <path
     sodipodi:nodetypes="sccsssss"
     inkscape:connector-curvature="0"
     id="path6108"
     d="m 13,41 c 4.999999,0 2,5.666667 3,7.000001 2.356135,0.213893 3.993381,-2.324028 7,-5.666668 3,-3.666666 7.666666,-8.666666 9.333333,-7 2.333333,2.333334 -3,7.333335 -7.333334,11.666668 C 20.666666,51.333334 18,55.333334 14.333333,55.333334 c -4,0 -4,-3.666667 -4.333333,-7 C 9.666667,45 10.333333,41 13,41 z"
     style="fill:#005500;stroke:none" />
  <path
     style="fill:#005500;stroke:none"
     d="m 45,41 c 4.999999,0 2,5.666667 3,7.000001 2.356135,0.213893 3.993381,-2.324028 7,-5.666668 3,-3.666666 7.666666,-8.666666 9.333333,-7 2.333333,2.333334 -3,7.333335 -7.333334,11.666668 C 52.666666,51.333334 50,55.333334 46.333333,55.333334 c -4,0 -4,-3.666667 -4.333333,-7 C 41.666667,45 42.333333,41 45,41 z"
     id="path6110"
     inkscape:connector-curvature="0"
     sodipodi:nodetypes="sccsssss" />
  <path
     sodipodi:nodetypes="sccsssss"
     inkscape:connector-curvature="0"
     id="path6112"
     d="m 78,41 c 4.999999,0 2,5.666667 3,7.000001 2.356135,0.213893 3.993381,-2.324028 7,-5.666668 3,-3.666666 7.666666,-8.666666 9.333333,-7 2.333333,2.333334 -3,7.333335 -7.333334,11.666668 C 85.666666,51.333334 83,55.333334 79.333333,55.333334 c -4,0 -4,-3.666667 -4.333333,-7 C 74.666667,45 75.333333,41 78,41 z"
     style="fill:#005500;stroke:none" />
  <path
     style="fill:#005500;stroke:none"
     d="m 110,41 c 5,0 2,5.666667 3,7.000001 2.35613,0.213893 3.99338,-2.324028 7,-5.666668 3,-3.666666 7.66667,-8.666666 9.33333,-7 2.33334,2.333334 -3,7.333335 -7.33333,11.666668 -4.33333,4.333333 -7,8.333333 -10.66667,8.333333 -4,0 -4,-3.666667 -4.33333,-7 C 106.66667,45 107.33333,41 110,41 z"
     id="path6114"
     inkscape:connector-curvature="0"
     sodipodi:nodetypes="sccsssss" />
  <path
     sodipodi:nodetypes="sccsssss"
     inkscape:connector-curvature="0"
     id="path6116"
     d="m 143,41 c 5,0 2,5.666667 3,7.000001 2.35613,0.213893 3.99338,-2.324028 7,-5.666668 3,-3.666666 7.66667,-8.666666 9.33333,-7 2.33334,2.333334 -3,7.333335 -7.33333,11.666668 -4.33333,4.333333 -7,8.333333 -10.66667,8.333333 -4,0 -4,-3.666667 -4.33333,-7 C 139.66667,45 140.33333,41 143,41 z"
     style="fill:#005500;stroke:none" />
  <path
     style="fill:#005500;stroke:none"
     d="m 13,68 c 4.999999,0 2,5.666667 3,7.000001 2.356135,0.213893 3.993381,-2.324028 7,-5.666668 3,-3.666666 7.666666,-8.666666 9.333333,-7 2.333333,2.333334 -3,7.333335 -7.333334,11.666668 C 20.666666,78.333334 18,82.333334 14.333333,82.333334 c -4,0 -4,-3.666667 -4.333333,-7 C 9.666667,72 10.333333,68 13,68 z"
     id="path6118"
     inkscape:connector-curvature="0"
     sodipodi:nodetypes="sccsssss" />
  <path
     sodipodi:nodetypes="sccsssss"
     inkscape:connector-curvature="0"
     id="path6120"
     d="m 45,68 c 4.999999,0 2,5.666667 3,7.000001 2.356135,0.213893 3.993381,-2.324028 7,-5.666668 3,-3.666666 7.666666,-8.666666 9.333333,-7 2.333333,2.333334 -3,7.333335 -7.333334,11.666668 C 52.666666,78.333334 50,82.333334 46.333333,82.333334 c -4,0 -4,-3.666667 -4.333333,-7 C 41.666667,72 42.333333,68 45,68 z"
     style="fill:#005500;stroke:none" />
  <path
     style="fill:#005500;stroke:none"
     d="m 78,68 c 4.999999,0 2,5.666667 3,7.000001 2.356135,0.213893 3.993381,-2.324028 7,-5.666668 3,-3.666666 7.666666,-8.666666 9.333333,-7 2.333333,2.333334 -3,7.333335 -7.333334,11.666668 C 85.666666,78.333334 83,82.333334 79.333333,82.333334 c -4,0 -4,-3.666667 -4.333333,-7 C 74.666667,72 75.333333,68 78,68 z"
     id="path6122"
     inkscape:connector-curvature="0"
     sodipodi:nodetypes="sccsssss" />
  <path
     sodipodi:nodetypes="sccsssss"
     inkscape:connector-curvature="0"
     id="path6124"
     d="m 110,68 c 5,0 2,5.666667 3,7.000001 2.35613,0.213893 3.99338,-2.324028 7,-5.666668 3,-3.666666 7.66667,-8.666666 9.33333,-7 2.33334,2.333334 -3,7.333335 -7.33333,11.666668 -4.33333,4.333333 -7,8.333333 -10.66667,8.333333 -4,0 -4,-3.666667 -4.33333,-7 C 106.66667,72 107.33333,68 110,68 z"
     style="fill:#005500;stroke:none" />
  <path
     style="fill:#005500;stroke:none"
     d="m 143,68 c 5,0 2,5.666667 3,7.000001 2.35613,0.213893 3.99338,-2.324028 7,-5.666668 3,-3.666666 7.66667,-8.666666 9.33333,-7 2.33334,2.333334 -3,7.333335 -7.33333,11.666668 -4.33333,4.333333 -7,8.333333 -10.66667,8.333333 -4,0 -4,-3.666667 -4.33333,-7 C 139.66667,72 140.33333,68 143,68 z"
     id="path6126"
     inkscape:connector-curvature="0"
     sodipodi:nodetypes="sccsssss" />
  <path
     sodipodi:nodetypes="sccsssss"
     inkscape:connector-curvature="0"
     id="path6128"
     d="m 13,95 c 4.999999,0 2,5.66667 3,7 2.356135,0.21389 3.993381,-2.32403 7,-5.666667 3,-3.666666 7.666666,-8.666666 9.333333,-7 2.333333,2.333334 -3,7.333335 -7.333334,11.666667 -4.333333,4.33333 -6.999999,8.33333 -10.666666,8.33333 -4,0 -4,-3.66666 -4.333333,-7 C 9.666667,99 10.333333,95 13,95 z"
     style="fill:#005500;stroke:none" />
  <path
     style="fill:#005500;stroke:none"
     d="m 45,95 c 4.999999,0 2,5.66667 3,7 2.356135,0.21389 3.993381,-2.32403 7,-5.666667 3,-3.666666 7.666666,-8.666666 9.333333,-7 2.333333,2.333334 -3,7.333335 -7.333334,11.666667 -4.333333,4.33333 -6.999999,8.33333 -10.666666,8.33333 -4,0 -4,-3.66666 -4.333333,-7 C 41.666667,99 42.333333,95 45,95 z"
     id="path6130"
     inkscape:connector-curvature="0"
     sodipodi:nodetypes="sccsssss" />
  <path
     sodipodi:nodetypes="sccsssss"
     inkscape:connector-curvature="0"
     id="path6132"
     d="m 78,95 c 4.999999,0 2,5.66667 3,7 2.356135,0.21389 3.993381,-2.32403 7,-5.666667 3,-3.666666 7.666666,-8.666666 9.333333,-7 2.333333,2.333334 -3,7.333335 -7.333334,11.666667 -4.333333,4.33333 -6.999999,8.33333 -10.666666,8.33333 -4,0 -4,-3.66666 -4.333333,-7 C 74.666667,99 75.333333,95 78,95 z"
     style="fill:#005500;stroke:none" />
  <path
     style="fill:#005500;stroke:none"
     d="m 110,95 c 5,0 2,5.66667 3,7 2.35613,0.21389 3.99338,-2.32403 7,-5.666667 3,-3.666666 7.66667,-8.666666 9.33333,-7 2.33334,2.333334 -3,7.333335 -7.33333,11.666667 -4.33333,4.33333 -7,8.33333 -10.66667,8.33333 -4,0 -4,-3.66666 -4.33333,-7 C 106.66667,99 107.33333,95 110,95 z"
     id="path6134"
     inkscape:connector-curvature="0"
     sodipodi:nodetypes="sccsssss" />
  <path
     sodipodi:nodetypes="sccsssss"
     inkscape:connector-curvature="0"
     id="path6136"
     d="m 143,95 c 5,0 2,5.66667 3,7 2.35613,0.21389 3.99338,-2.32403 7,-5.666667 3,-3.666666 7.66667,-8.666666 9.33333,-7 2.33334,2.333334 -3,7.333335 -7.33333,11.666667 -4.33333,4.33333 -7,8.33333 -10.66667,8.33333 -4,0 -4,-3.66666 -4.33333,-7 C 139.66667,99 140.33333,95 143,95 z"
     style="fill:#005500;stroke:none" />
  <path
     style="fill:#005500;stroke:none"
     d="m 13,122 c 4.999999,0 2,5.66667 3,7 2.356135,0.21389 3.993381,-2.32403 7,-5.66667 3,-3.66666 7.666666,-8.66666 9.333333,-7 2.333333,2.33334 -3,7.33334 -7.333334,11.66667 -4.333333,4.33333 -6.999999,8.33333 -10.666666,8.33333 -4,0 -4,-3.66666 -4.333333,-7 C 9.666667,126 10.333333,122 13,122 z"
     id="path6138"
     inkscape:connector-curvature="0"
     sodipodi:nodetypes="sccsssss" />
  <path
     sodipodi:nodetypes="sccsssss"
     inkscape:connector-curvature="0"
     id="path6140"
     d="m 45,122 c 4.999999,0 2,5.66667 3,7 2.356135,0.21389 3.993381,-2.32403 7,-5.66667 3,-3.66666 7.666666,-8.66666 9.333333,-7 2.333333,2.33334 -3,7.33334 -7.333334,11.66667 -4.333333,4.33333 -6.999999,8.33333 -10.666666,8.33333 -4,0 -4,-3.66666 -4.333333,-7 C 41.666667,126 42.333333,122 45,122 z"
     style="fill:#005500;stroke:none" />
  <path
     style="fill:#005500;stroke:none"
     d="m 78,122 c 4.999999,0 2,5.66667 3,7 2.356135,0.21389 3.993381,-2.32403 7,-5.66667 3,-3.66666 7.666666,-8.66666 9.333333,-7 2.333333,2.33334 -3,7.33334 -7.333334,11.66667 -4.333333,4.33333 -6.999999,8.33333 -10.666666,8.33333 -4,0 -4,-3.66666 -4.333333,-7 C 74.666667,126 75.333333,122 78,122 z"
     id="path6142"
     inkscape:connector-curvature="0"
     sodipodi:nodetypes="sccsssss" />
  <path
     sodipodi:nodetypes="sccsssss"
     inkscape:connector-curvature="0"
     id="path6144"
     d="m 110,122 c 5,0 2,5.66667 3,7 2.35613,0.21389 3.99338,-2.32403 7,-5.66667 3,-3.66666 7.66667,-8.66666 9.33333,-7 2.33334,2.33334 -3,7.33334 -7.33333,11.66667 -4.33333,4.33333 -7,8.33333 -10.66667,8.33333 -4,0 -4,-3.66666 -4.33333,-7 C 106.66667,126 107.33333,122 110,122 z"
     style="fill:#005500;stroke:none" />
  <path
     style="fill:#005500;stroke:none"
     d="m 143,122 c 5,0 2,5.66667 3,7 2.35613,0.21389 3.99338,-2.32403 7,-5.66667 3,-3.66666 7.66667,-8.66666 9.33333,-7 2.33334,2.33334 -3,7.33334 -7.33333,11.66667 -4.33333,4.33333 -7,8.33333 -10.66667,8.33333 -4,0 -4,-3.66666 -4.33333,-7 C 139.66667,126 140.33333,122 143,122 z"
     id="path6146"
     inkscape:connector-curvature="0"
     sodipodi:nodetypes="sccsssss" />
  <path
     sodipodi:nodetypes="sccsssss"
     inkscape:connector-curvature="0"
     id="path6148"
     d="m 13,150 c 4.999999,0 2,5.66667 3,7 2.356135,0.21389 3.993381,-2.32403 7,-5.66667 3,-3.66666 7.666666,-8.66666 9.333333,-7 2.333333,2.33334 -3,7.33334 -7.333334,11.66667 -4.333333,4.33333 -6.999999,8.33333 -10.666666,8.33333 -4,0 -4,-3.66666 -4.333333,-7 C 9.666667,154 10.333333,150 13,150 z"
     style="fill:#005500;stroke:none" />
  <path
     style="fill:#005500;stroke:none"
     d="m 45,150 c 4.999999,0 2,5.66667 3,7 2.356135,0.21389 3.993381,-2.32403 7,-5.66667 3,-3.66666 7.666666,-8.66666 9.333333,-7 2.333333,2.33334 -3,7.33334 -7.333334,11.66667 -4.333333,4.33333 -6.999999,8.33333 -10.666666,8.33333 -4,0 -4,-3.66666 -4.333333,-7 C 41.666667,154 42.333333,150 45,150 z"
     id="path6150"
     inkscape:connector-curvature="0"
     sodipodi:nodetypes="sccsssss" />
  <path
     sodipodi:nodetypes="sccsssss"
     inkscape:connector-curvature="0"
     id="path6158"
     d="m 90.333333,185.33333 c 4.999999,0 2,5.66667 3,7 2.356135,0.21389 3.993381,-2.32403 6.999997,-5.66667 3,-3.66666 7.66667,-8.66666 9.33334,-7 2.33333,2.33334 -3,7.33334 -7.33334,11.66667 -4.333331,4.33333 -6.999997,8.33333 -10.666664,8.33333 -4,0 -4,-3.66666 -4.333333,-7 -0.333333,-3.33333 0.333333,-7.33333 3,-7.33333 z"
     style="fill:#005500;stroke:none" />
  <path
     style="fill:#800000;stroke:none"
     d="M 173.66667,9.666667 C 178,7.333333 179.33334,14.333333 181,14.333333 c 1.66667,0 4.33334,-5 6,-5.333333 1.66667,-0.333333 3,1.333333 3,3 0,1.666667 -6.66666,5.666667 -6.33333,7.333333 0.33333,1.666667 3,3.333334 3,5 0,1.666667 0,3.333334 -2.66667,2.666667 -2.66666,-0.666667 -3.33333,-2.333333 -4.66667,-2.666666 C 178,24 176.75366,26.623172 174.66667,27.666667 c -1.33334,0.666667 -5.14924,0.43878 -3,-3 1.66667,-2.666667 4.66667,-3.333334 4.66667,-5 0,-1.795053 -5.66667,-7.000001 -2.66667,-10 z"
     id="path6160"
     inkscape:connector-curvature="0"
     sodipodi:nodetypes="cssssssssssc" />
  <path
     sodipodi:nodetypes="cssssssssssc"
     inkscape:connector-curvature="0"
     id="path6162"
     d="M 202.66667,9.666667 C 207,7.333333 208.33334,14.333333 210,14.333333 c 1.66667,0 4.33334,-5 6,-5.333333 1.66667,-0.333333 3,1.333333 3,3 0,1.666667 -6.66666,5.666667 -6.33333,7.333333 0.33333,1.666667 3,3.333334 3,5 0,1.666667 0,3.333334 -2.66667,2.666667 -2.66666,-0.666667 -3.33333,-2.333333 -4.66667,-2.666666 C 207,24 205.75366,26.623172 203.66667,27.666667 c -1.33334,0.666667 -5.14924,0.43878 -3,-3 1.66667,-2.666667 4.66667,-3.333334 4.66667,-5 0,-1.795053 -5.66667,-7.000001 -2.66667,-10 z"
     style="fill:#800000;stroke:none" />
  <path
     style="fill:#800000;stroke:none"
     d="M 231.66667,9.666667 C 236,7.333333 237.33334,14.333333 239,14.333333 c 1.66667,0 4.33334,-5 6,-5.333333 1.66667,-0.333333 3,1.333333 3,3 0,1.666667 -6.66666,5.666667 -6.33333,7.333333 0.33333,1.666667 3,3.333334 3,5 0,1.666667 0,3.333334 -2.66667,2.666667 -2.66666,-0.666667 -3.33333,-2.333333 -4.66667,-2.666666 C 236,24 234.75366,26.623172 232.66667,27.666667 c -1.33334,0.666667 -5.14924,0.43878 -3,-3 1.66667,-2.666667 4.66667,-3.333334 4.66667,-5 0,-1.795053 -5.66667,-7.000001 -2.66667,-10 z"
     id="path6164"
     inkscape:connector-curvature="0"
     sodipodi:nodetypes="cssssssssssc" />
  <path
     sodipodi:nodetypes="cssssssssssc"
     inkscape:connector-curvature="0"
     id="path6166"
     d="M 173.66667,36.666667 C 178,34.333333 179.33334,41.333333 181,41.333333 c 1.66667,0 4.33334,-5 6,-5.333333 1.66667,-0.333333 3,1.333333 3,3 0,1.666667 -6.66666,5.666667 -6.33333,7.333333 0.33333,1.666667 3,3.333334 3,5 0,1.666667 0,3.333334 -2.66667,2.666667 -2.66666,-0.666667 -3.33333,-2.333333 -4.66667,-2.666666 C 178,51 176.75366,53.623172 174.66667,54.666667 c -1.33334,0.666667 -5.14924,0.43878 -3,-3 1.66667,-2.666667 4.66667,-3.333334 4.66667,-5 0,-1.795053 -5.66667,-7.000001 -2.66667,-10 z"
     style="fill:#800000;stroke:none" />
  <path
     style="fill:#800000;stroke:none"
     d="M 202.66667,36.666667 C 207,34.333333 208.33334,41.333333 210,41.333333 c 1.66667,0 4.33334,-5 6,-5.333333 1.66667,-0.333333 3,1.333333 3,3 0,1.666667 -6.66666,5.666667 -6.33333,7.333333 0.33333,1.666667 3,3.333334 3,5 0,1.666667 0,3.333334 -2.66667,2.666667 -2.66666,-0.666667 -3.33333,-2.333333 -4.66667,-2.666666 C 207,51 205.75366,53.623172 203.66667,54.666667 c -1.33334,0.666667 -5.14924,0.43878 -3,-3 1.66667,-2.666667 4.66667,-3.333334 4.66667,-5 0,-1.795053 -5.66667,-7.000001 -2.66667,-10 z"
     id="path6168"
     inkscape:connector-curvature="0"
     sodipodi:nodetypes="cssssssssssc" />
  <path
     sodipodi:nodetypes="cssssssssssc"
     inkscape:connector-curvature="0"
     id="path6170"
     d="M 231.66667,36.666667 C 236,34.333333 237.33334,41.333333 239,41.333333 c 1.66667,0 4.33334,-5 6,-5.333333 1.66667,-0.333333 3,1.333333 3,3 0,1.666667 -6.66666,5.666667 -6.33333,7.333333 0.33333,1.666667 3,3.333334 3,5 0,1.666667 0,3.333334 -2.66667,2.666667 -2.66666,-0.666667 -3.33333,-2.333333 -4.66667,-2.666666 C 236,51 234.75366,53.623172 232.66667,54.666667 c -1.33334,0.666667 -5.14924,0.43878 -3,-3 1.66667,-2.666667 4.66667,-3.333334 4.66667,-5 0,-1.795053 -5.66667,-7.000001 -2.66667,-10 z"
     style="fill:#800000;stroke:none" />
  <path
     style="fill:#800000;stroke:none"
     d="M 173.66667,63.666667 C 178,61.333333 179.33334,68.333333 181,68.333333 c 1.66667,0 4.33334,-5 6,-5.333333 1.66667,-0.333333 3,1.333333 3,3 0,1.666667 -6.66666,5.666667 -6.33333,7.333333 0.33333,1.666667 3,3.333334 3,5 0,1.666667 0,3.333334 -2.66667,2.666667 -2.66666,-0.666667 -3.33333,-2.333333 -4.66667,-2.666666 C 178,78 176.75366,80.623172 174.66667,81.666667 c -1.33334,0.666667 -5.14924,0.43878 -3,-3 1.66667,-2.666667 4.66667,-3.333334 4.66667,-5 0,-1.795053 -5.66667,-7.000001 -2.66667,-10 z"
     id="path6172"
     inkscape:connector-curvature="0"
     sodipodi:nodetypes="cssssssssssc" />
  <path
     sodipodi:nodetypes="cssssssssssc"
     inkscape:connector-curvature="0"
     id="path6174"
     d="M 202.66667,63.666667 C 207,61.333333 208.33334,68.333333 210,68.333333 c 1.66667,0 4.33334,-5 6,-5.333333 1.66667,-0.333333 3,1.333333 3,3 0,1.666667 -6.66666,5.666667 -6.33333,7.333333 0.33333,1.666667 3,3.333334 3,5 0,1.666667 0,3.333334 -2.66667,2.666667 -2.66666,-0.666667 -3.33333,-2.333333 -4.66667,-2.666666 C 207,78 205.75366,80.623172 203.66667,81.666667 c -1.33334,0.666667 -5.14924,0.43878 -3,-3 1.66667,-2.666667 4.66667,-3.333334 4.66667,-5 0,-1.795053 -5.66667,-7.000001 -2.66667,-10 z"
     style="fill:#800000;stroke:none" />
  <path
     style="fill:#800000;stroke:none"
     d="M 231.66667,63.666667 C 236,61.333333 237.33334,68.333333 239,68.333333 c 1.66667,0 4.33334,-5 6,-5.333333 1.66667,-0.333333 3,1.333333 3,3 0,1.666667 -6.66666,5.666667 -6.33333,7.333333 0.33333,1.666667 3,3.333334 3,5 0,1.666667 0,3.333334 -2.66667,2.666667 -2.66666,-0.666667 -3.33333,-2.333333 -4.66667,-2.666666 C 236,78 234.75366,80.623172 232.66667,81.666667 c -1.33334,0.666667 -5.14924,0.43878 -3,-3 1.66667,-2.666667 4.66667,-3.333334 4.66667,-5 0,-1.795053 -5.66667,-7.000001 -2.66667,-10 z"
     id="path6176"
     inkscape:connector-curvature="0"
     sodipodi:nodetypes="cssssssssssc" />
  <path
     sodipodi:nodetypes="cssssssssssc"
     inkscape:connector-curvature="0"
     id="path6178"
     d="M 173.66667,90.666667 C 178,88.333333 179.33334,95.333333 181,95.333333 c 1.66667,0 4.33334,-5 6,-5.333333 1.66667,-0.333333 3,1.333333 3,3 0,1.666667 -6.66666,5.66667 -6.33333,7.33333 0.33333,1.66667 3,3.33334 3,5 0,1.66667 0,3.33334 -2.66667,2.66667 -2.66666,-0.66667 -3.33333,-2.33333 -4.66667,-2.66667 -1.33333,-0.33333 -2.57967,2.28984 -4.66666,3.33334 -1.33334,0.66666 -5.14924,0.43878 -3,-3 1.66667,-2.66667 4.66667,-3.33334 4.66667,-5 0,-1.79506 -5.66667,-7.000004 -2.66667,-10.000003 z"
     style="fill:#800000;stroke:none" />
  <path
     style="fill:#800000;stroke:none"
     d="M 202.66667,90.666667 C 207,88.333333 208.33334,95.333333 210,95.333333 c 1.66667,0 4.33334,-5 6,-5.333333 1.66667,-0.333333 3,1.333333 3,3 0,1.666667 -6.66666,5.66667 -6.33333,7.33333 0.33333,1.66667 3,3.33334 3,5 0,1.66667 0,3.33334 -2.66667,2.66667 -2.66666,-0.66667 -3.33333,-2.33333 -4.66667,-2.66667 -1.33333,-0.33333 -2.57967,2.28984 -4.66666,3.33334 -1.33334,0.66666 -5.14924,0.43878 -3,-3 1.66667,-2.66667 4.66667,-3.33334 4.66667,-5 0,-1.79506 -5.66667,-7.000004 -2.66667,-10.000003 z"
     id="path6180"
     inkscape:connector-curvature="0"
     sodipodi:nodetypes="cssssssssssc" />
  <path
     sodipodi:nodetypes="cssssssssssc"
     inkscape:connector-curvature="0"
     id="path6182"
     d="M 231.66667,90.666667 C 236,88.333333 237.33334,95.333333 239,95.333333 c 1.66667,0 4.33334,-5 6,-5.333333 1.66667,-0.333333 3,1.333333 3,3 0,1.666667 -6.66666,5.66667 -6.33333,7.33333 0.33333,1.66667 3,3.33334 3,5 0,1.66667 0,3.33334 -2.66667,2.66667 -2.66666,-0.66667 -3.33333,-2.33333 -4.66667,-2.66667 -1.33333,-0.33333 -2.57967,2.28984 -4.66666,3.33334 -1.33334,0.66666 -5.14924,0.43878 -3,-3 1.66667,-2.66667 4.66667,-3.33334 4.66667,-5 0,-1.79506 -5.66667,-7.000004 -2.66667,-10.000003 z"
     style="fill:#800000;stroke:none" />
  <path
     style="fill:#800000;stroke:none"
     d="m 173.66667,117.66667 c 4.33333,-2.33334 5.66667,4.66666 7.33333,4.66666 1.66667,0 4.33334,-5 6,-5.33333 1.66667,-0.33333 3,1.33333 3,3 0,1.66667 -6.66666,5.66667 -6.33333,7.33333 0.33333,1.66667 3,3.33334 3,5 0,1.66667 0,3.33334 -2.66667,2.66667 -2.66666,-0.66667 -3.33333,-2.33333 -4.66667,-2.66667 -1.33333,-0.33333 -2.57967,2.28984 -4.66666,3.33334 -1.33334,0.66666 -5.14924,0.43878 -3,-3 1.66667,-2.66667 4.66667,-3.33334 4.66667,-5 0,-1.79506 -5.66667,-7 -2.66667,-10 z"
     id="path6184"
     inkscape:connector-curvature="0"
     sodipodi:nodetypes="cssssssssssc" />
  <path
     sodipodi:nodetypes="cssssssssssc"
     inkscape:connector-curvature="0"
     id="path6186"
     d="m 202.66667,117.66667 c 4.33333,-2.33334 5.66667,4.66666 7.33333,4.66666 1.66667,0 4.33334,-5 6,-5.33333 1.66667,-0.33333 3,1.33333 3,3 0,1.66667 -6.66666,5.66667 -6.33333,7.33333 0.33333,1.66667 3,3.33334 3,5 0,1.66667 0,3.33334 -2.66667,2.66667 -2.66666,-0.66667 -3.33333,-2.33333 -4.66667,-2.66667 -1.33333,-0.33333 -2.57967,2.28984 -4.66666,3.33334 -1.33334,0.66666 -5.14924,0.43878 -3,-3 1.66667,-2.66667 4.66667,-3.33334 4.66667,-5 0,-1.79506 -5.66667,-7 -2.66667,-10 z"
     style="fill:#800000;stroke:none" />
  <path
     style="fill:#800000;stroke:none"
     d="m 231.66667,117.66667 c 4.33333,-2.33334 5.66667,4.66666 7.33333,4.66666 1.66667,0 4.33334,-5 6,-5.33333 1.66667,-0.33333 3,1.33333 3,3 0,1.66667 -6.66666,5.66667 -6.33333,7.33333 0.33333,1.66667 3,3.33334 3,5 0,1.66667 0,3.33334 -2.66667,2.66667 -2.66666,-0.66667 -3.33333,-2.33333 -4.66667,-2.66667 -1.33333,-0.33333 -2.57967,2.28984 -4.66666,3.33334 -1.33334,0.66666 -5.14924,0.43878 -3,-3 1.66667,-2.66667 4.66667,-3.33334 4.66667,-5 0,-1.79506 -5.66667,-7 -2.66667,-10 z"
     id="path6188"
     inkscape:connector-curvature="0"
     sodipodi:nodetypes="cssssssssssc" />
  <path
     sodipodi:nodetypes="cssssssssssc"
     inkscape:connector-curvature="0"
     id="path6190"
     d="m 173.66667,144.66667 c 4.33333,-2.33334 5.66667,4.66666 7.33333,4.66666 1.66667,0 4.33334,-5 6,-5.33333 1.66667,-0.33333 3,1.33333 3,3 0,1.66667 -6.66666,5.66667 -6.33333,7.33333 0.33333,1.66667 3,3.33334 3,5 0,1.66667 0,3.33334 -2.66667,2.66667 -2.66666,-0.66667 -3.33333,-2.33333 -4.66667,-2.66667 -1.33333,-0.33333 -2.57967,2.28984 -4.66666,3.33334 -1.33334,0.66666 -5.14924,0.43878 -3,-3 1.66667,-2.66667 4.66667,-3.33334 4.66667,-5 0,-1.79506 -5.66667,-7 -2.66667,-10 z"
     style="fill:#800000;stroke:none" />
  <path
     style="fill:#800000;stroke:none"
     d="m 202.66667,144.66667 c 4.33333,-2.33334 5.66667,4.66666 7.33333,4.66666 1.66667,0 4.33334,-5 6,-5.33333 1.66667,-0.33333 3,1.33333 3,3 0,1.66667 -6.66666,5.66667 -6.33333,7.33333 0.33333,1.66667 3,3.33334 3,5 0,1.66667 0,3.33334 -2.66667,2.66667 -2.66666,-0.66667 -3.33333,-2.33333 -4.66667,-2.66667 -1.33333,-0.33333 -2.57967,2.28984 -4.66666,3.33334 -1.33334,0.66666 -5.14924,0.43878 -3,-3 1.66667,-2.66667 4.66667,-3.33334 4.66667,-5 0,-1.79506 -5.66667,-7 -2.66667,-10 z"
     id="path6192"
     inkscape:connector-curvature="0"
     sodipodi:nodetypes="cssssssssssc" />
  <text
     sodipodi:linespacing="110%"
     id="text3059"
     y="196.87158"
     x="62.045578"
     style="font-size:28px;font-style:normal;font-variant:normal;font-weight:normal;font-stretch:normal;text-align:start;line-height:110.00000238%;letter-spacing:0px;word-spacing:0px;writing-mode:lr-tb;text-anchor:start;fill:#000000;fill-opacity:1;stroke:none;font-family:Times New Roman;-inkscape-font-specification:'Times New Roman,'"
     xml:space="preserve">P(</text>
  <text
     xml:space="preserve"
     style="font-size:28px;font-style:normal;font-variant:normal;font-weight:normal;font-stretch:normal;text-align:start;line-height:110.00000238%;letter-spacing:0px;word-spacing:0px;writing-mode:lr-tb;text-anchor:start;fill:#000000;fill-opacity:1;stroke:none;font-family:Times New Roman;-inkscape-font-specification:'Times New Roman,'"
     x="110.04558"
     y="196.87158"
     id="text7017"
     sodipodi:linespacing="110%">)</text>
  <text
     xml:space="preserve"
     style="font-size:28px;font-style:normal;font-variant:normal;font-weight:normal;font-stretch:normal;text-align:start;line-height:110.00000238%;letter-spacing:0px;word-spacing:0px;writing-mode:lr-tb;text-anchor:start;fill:#000000;fill-opacity:1;stroke:none;font-family:Times New Roman;-inkscape-font-specification:'Times New Roman,'"
     x="126.04558"
     y="197.87158"
     id="text7019"
     sodipodi:linespacing="110%">=</text>
  <text
     xml:space="preserve"
     style="font-size:20px;font-style:normal;font-variant:normal;font-weight:normal;font-stretch:normal;text-align:start;line-height:110.00000238%;letter-spacing:0px;word-spacing:0px;writing-mode:lr-tb;text-anchor:start;fill:#000000;fill-opacity:1;stroke:none;font-family:Times New Roman;-inkscape-font-specification:'Times New Roman,'"
     x="158.37892"
     y="187.53824"
     id="text7021"
     sodipodi:linespacing="110%">27</text>
  <text
     sodipodi:linespacing="110%"
     id="text7023"
     y="205"
     x="156.37892"
     style="font-size:20px;font-style:normal;font-variant:normal;font-weight:normal;font-stretch:normal;text-align:start;line-height:110.00000238%;letter-spacing:0px;word-spacing:0px;writing-mode:lr-tb;text-anchor:start;fill:#000000;fill-opacity:1;stroke:none;font-family:Times New Roman;-inkscape-font-specification:'Times New Roman,'"
     xml:space="preserve">44</text>
  <path
     sodipodi:nodetypes="cc"
     inkscape:connector-curvature="0"
     id="path3710"
     d="m 152.16667,189.5 29.5,0"
     style="fill:none;stroke:#000000;stroke-width:1px;stroke-linecap:butt;stroke-linejoin:miter;stroke-opacity:1" />
</svg>
