<?xml version="1.0" encoding="UTF-8" standalone="no"?>
<!-- Generator: Adobe Fireworks CS6, Export SVG Extension by Aaron Beall (http://fireworks.abeall.com) . Version: 0.6.1  -->

<svg
   xmlns:dc="http://purl.org/dc/elements/1.1/"
   xmlns:cc="http://creativecommons.org/ns#"
   xmlns:rdf="http://www.w3.org/1999/02/22-rdf-syntax-ns#"
   xmlns:svg="http://www.w3.org/2000/svg"
   xmlns="http://www.w3.org/2000/svg"
   xmlns:sodipodi="http://sodipodi.sourceforge.net/DTD/sodipodi-0.dtd"
   xmlns:inkscape="http://www.inkscape.org/namespaces/inkscape"
   id="pValueTail-Page%201"
   viewBox="0 0 399 242"
   style="background-color:#ffffff00"
   version="1.1"
   xml:space="preserve"
   x="0px"
   y="0px"
   width="399px"
   height="242px"
   inkscape:version="0.48.2 r9819"
   sodipodi:docname="pValueTail.svg"><metadata
   id="metadata39"><rdf:RDF><cc:Work
       rdf:about=""><dc:format>image/svg+xml</dc:format><dc:type
         rdf:resource="http://purl.org/dc/dcmitype/StillImage" /></cc:Work></rdf:RDF></metadata><defs
   id="defs37">
		
		
		
		
		
		
		
		
		
	</defs><sodipodi:namedview
   pagecolor="#ffffff"
   bordercolor="#666666"
   borderopacity="1"
   objecttolerance="10"
   gridtolerance="10"
   guidetolerance="10"
   inkscape:pageopacity="0"
   inkscape:pageshadow="2"
   inkscape:window-width="1148"
   inkscape:window-height="743"
   id="namedview35"
   showgrid="false"
   inkscape:zoom="2"
   inkscape:cx="199.5"
   inkscape:cy="121"
   inkscape:window-x="0"
   inkscape:window-y="0"
   inkscape:window-maximized="0"
   inkscape:current-layer="pValueTail-Page%201" />
	<rect
   style="fill:#ffffff"
   id="rect4"
   height="192"
   width="394"
   y="0"
   x="3" /><path
   style="fill:none;stroke:#000000;stroke-width:1"
   inkscape:connector-curvature="0"
   d="m 2.5,191.5 395,0"
   id="Line" /><path
   style="fill:#cacad9;stroke:#000000;stroke-width:1"
   inkscape:connector-curvature="0"
   id="path7"
   d="M 4,191 C 21.5,186.5 39.5,136.5 48,93.5 53.2502,66.94 62.9601,12 75.5,12 87,12 98.2417,33.4229 112,57.5 c 18,31.5 28.5996,68.6168 67,92.5 41,25.5 62.25,27.75 116.75,33.5 51.9063,5.4763 53.25,4.5 101,8" /><path
   style="fill:#0000ff;stroke:#000000;stroke-width:1"
   inkscape:connector-curvature="0"
   id="path9"
   d="m 179,191 c 0,0 -0.5996,-41.3748 0,-41 38,23.75 62.25,27.75 116.75,33.5 51.9063,5.4763 53.25,4.5 101,8" /><text
   id="text11"
   style="font-size:18px;text-align:left;color:#0000ff;fill:#0000ff;font-family:Arial"
   width="169"
   y="240"
   x="98"><tspan
     id="tspan13">Observed value of Q</tspan></text>
<text
   id="text15"
   style="font-size:18px;text-align:left;color:#ff0000;fill:#ff0000;font-family:Arial"
   width="187"
   y="107"
   x="196"><tspan
     id="tspan17">p-value for 1-tailed test</tspan></text>
<g
   id="Group%3A%20Arrowheads">
			<path
   style="fill:none;stroke:#0000ff;stroke-width:2"
   inkscape:connector-curvature="0"
   d="m 178.5,226.5 0,-21"
   id="Line2" />
			<path
   style="fill:#0000ff"
   inkscape:connector-curvature="0"
   id="path21"
   d="m 178.5,193.6026 6.6003,15.6 -6.6003,-3.7026 -6.5997,3.7026 6.5997,-15.6 z" />
		</g><g
   id="Group%3A%20Arrowheads2">
			<path
   style="fill:none;stroke:#ff0000;stroke-width:2"
   inkscape:connector-curvature="0"
   d="m 265.5,115.5 -38,55"
   id="Line3" />
			<path
   style="fill:#ff0000"
   inkscape:connector-curvature="0"
   id="path25"
   d="m 220.7371,180.2884 3.4373,-16.5865 3.3256,6.7981 7.5344,0.7052 -14.2973,9.0832 z" />
		</g><text
   id="text27"
   style="font-size:18px;text-align:left;color:#000000;fill:#000000;font-family:Arial"
   width="258"
   y="33"
   x="114"><tspan
     id="tspan29">Distribution of Q when H</tspan><tspan
     id="tspan31"
     style="font-family:Helvetica">₀</tspan><tspan
     id="tspan33"
     style="font-family:Arial"> is true</tspan></text>

</svg>