<?xml version="1.0" encoding="UTF-8" standalone="no"?>
<!-- Generator: Adobe Fireworks CS6, Export SVG Extension by Aaron Beall (http://fireworks.abeall.com) . Version: 0.6.1  -->

<svg
   xmlns:dc="http://purl.org/dc/elements/1.1/"
   xmlns:cc="http://creativecommons.org/ns#"
   xmlns:rdf="http://www.w3.org/1999/02/22-rdf-syntax-ns#"
   xmlns:svg="http://www.w3.org/2000/svg"
   xmlns="http://www.w3.org/2000/svg"
   xmlns:sodipodi="http://sodipodi.sourceforge.net/DTD/sodipodi-0.dtd"
   xmlns:inkscape="http://www.inkscape.org/namespaces/inkscape"
   id="sliceProb-Page%201"
   viewBox="0 0 322 239"
   style="background-color:#ffffff00"
   version="1.1"
   xml:space="preserve"
   x="0px"
   y="0px"
   width="322px"
   height="239px"
   inkscape:version="0.48.2 r9819"
   sodipodi:docname="sliceProb.svg"><metadata
   id="metadata49"><rdf:RDF><cc:Work
       rdf:about=""><dc:format>image/svg+xml</dc:format><dc:type
         rdf:resource="http://purl.org/dc/dcmitype/StillImage" /></cc:Work></rdf:RDF></metadata><defs
   id="defs47" /><sodipodi:namedview
   pagecolor="#ffffff"
   bordercolor="#666666"
   borderopacity="1"
   objecttolerance="10"
   gridtolerance="10"
   guidetolerance="10"
   inkscape:pageopacity="0"
   inkscape:pageshadow="2"
   inkscape:window-width="963"
   inkscape:window-height="736"
   id="namedview45"
   showgrid="false"
   inkscape:zoom="2"
   inkscape:cx="161"
   inkscape:cy="119.5"
   inkscape:window-x="0"
   inkscape:window-y="0"
   inkscape:window-maximized="0"
   inkscape:current-layer="sliceProb-Page%201" />
	<rect
   x="18"
   y="20"
   width="295"
   height="200"
   fill="#ffffff"
   id="rect3" />
	<path
   id="Line"
   d="M 18.5 17.5 L 18.5 220.5 "
   stroke="#000000"
   stroke-width="1"
   fill="none" />
	<path
   id="Line2"
   d="M 321.5 220.5 L 18.5 220.5 "
   stroke="#000000"
   stroke-width="1"
   fill="none" />
	<text
   x="4"
   y="12"
   width="22"
   style="font-size:14px;text-align:left;color:#000000;fill:#000000;font-family:Arial"
   id="text7"><tspan
     id="tspan9">f(t)</tspan></text>

	<text
   x="310"
   y="234"
   width="8"
   style="font-size:14px;text-align:left;color:#000000;fill:#000000;font-family:Arial"
   id="text11"><tspan
     id="tspan13">t</tspan></text>

	<text
   x="108"
   y="238"
   width="11"
   style="font-size:14px;text-align:left;color:#000000;fill:#000000;font-family:Arial"
   id="text15"><tspan
     id="tspan17">x</tspan></text>

	<path
   id="Line3"
   d="M 18.5 220.5 L 12.5 220.5 "
   stroke="#000000"
   stroke-width="1"
   fill="none" />
	<text
   x="2"
   y="225"
   width="12"
   style="font-size:14px;text-align:left;color:#000000;fill:#000000;font-family:Arial"
   id="text20"><tspan
     id="tspan22">0</tspan></text>

	<path
   d="M 22 220 C 29.5 219 47 201.5 53 169 C 59 136.5 72.5 74 95 53 C 117.0834 32.3888 135.7054 36.6167 163.5 63.5 C 194 93 225.5 181 256.5 203.5 C 277.9503 219.0688 310 220 310 220 "
   stroke="#000000"
   stroke-width="1"
   fill="#d1e1ff"
   id="path24" />
	<path
   id="Line4"
   d="M 111.5 226.5 L 111.5 220.5 "
   stroke="#000000"
   stroke-width="1"
   fill="none" />
	<text
   x="79"
   y="137"
   width="25"
   style="font-size:14px;text-align:left;color:#ff0000;fill:#ff0000;font-family:Arial"
   id="text27"><tspan
     id="tspan29">f(x)</tspan></text>

	<text
   x="109"
   y="34"
   width="18"
   style="font-size:14px;text-align:left;color:#ff0000;fill:#ff0000;font-family:Symbol"
   id="text31"
   sodipodi:linespacing="125%"><tspan
     style="font-family:Arial"
     id="tspan35"><tspan
   style="-inkscape-font-specification:'Times New Roman,';font-family:Times New Roman;font-weight:normal;font-style:normal;font-stretch:normal;font-variant:normal;font-size:16px;text-anchor:start;text-align:start;writing-mode:lr;line-height:125%"
   id="tspan3026">δ</tspan>x</tspan></text>

	<g
   id="Group%3A%20Arrowheads">
		<path
   id="Line5"
   d="M 103.5 46.5 L 103.5 213.5 "
   stroke="#ff0000"
   stroke-width="1"
   fill="none" />
		<path
   d="M 103.5 41.3493 C 104.5083 43.9078 106.2287 47.0821 108.05 49.0493 L 103.5 47.5 L 98.95 49.0493 C 100.7713 47.0821 102.4922 43.9078 103.5 41.3493 Z"
   fill="#ff0000"
   id="path39" />
		<path
   d="M 103.5 219.6507 C 102.4917 217.0922 100.7713 213.9179 98.95 211.9507 L 103.5 213.5 L 108.05 211.9507 C 106.2287 213.9179 104.5078 217.0922 103.5 219.6507 Z"
   fill="#ff0000"
   id="path41" />
	</g>
	<rect
   x="112"
   y="40"
   width="8"
   height="180"
   stroke="#ff0000"
   stroke-width="1"
   fill="#ffbfbf"
   id="rect43" />
</svg>