<?xml version="1.0" encoding="UTF-8" standalone="no"?>
<!-- Generator: Adobe Fireworks CS6, Export SVG Extension by Aaron Beall (http://fireworks.abeall.com) . Version: 0.6.1  -->

<svg
   xmlns:dc="http://purl.org/dc/elements/1.1/"
   xmlns:cc="http://creativecommons.org/ns#"
   xmlns:rdf="http://www.w3.org/1999/02/22-rdf-syntax-ns#"
   xmlns:svg="http://www.w3.org/2000/svg"
   xmlns="http://www.w3.org/2000/svg"
   xmlns:sodipodi="http://sodipodi.sourceforge.net/DTD/sodipodi-0.dtd"
   xmlns:inkscape="http://www.inkscape.org/namespaces/inkscape"
   id="Untitled-Page%201"
   viewBox="0 0 467 157"
   style="background-color:#ffffff00"
   version="1.1"
   xml:space="preserve"
   x="0px"
   y="0px"
   width="467px"
   height="157px"
   inkscape:version="0.48.2 r9819"
   sodipodi:docname="bias.svg"><metadata
   id="metadata82"><rdf:RDF><cc:Work
       rdf:about=""><dc:format>image/svg+xml</dc:format><dc:type
         rdf:resource="http://purl.org/dc/dcmitype/StillImage" /></cc:Work></rdf:RDF></metadata><defs
   id="defs80">
		
		
		
		
		
		
		
		
		
		
		
		
		
		
		
		
		
		
		
		
		
		
		
		
		
	</defs><sodipodi:namedview
   pagecolor="#ffffff"
   bordercolor="#666666"
   borderopacity="1"
   objecttolerance="10"
   gridtolerance="10"
   guidetolerance="10"
   inkscape:pageopacity="0"
   inkscape:pageshadow="2"
   inkscape:window-width="1159"
   inkscape:window-height="681"
   id="namedview78"
   showgrid="false"
   inkscape:zoom="2"
   inkscape:cx="219.18359"
   inkscape:cy="78.5"
   inkscape:window-x="0"
   inkscape:window-y="0"
   inkscape:window-maximized="0"
   inkscape:current-layer="Untitled-Page%201" />
	<rect
   style="fill:#ffffff"
   id="rect4"
   height="101"
   width="211"
   y="18"
   x="0" /><rect
   style="fill:#ffffff"
   id="rect6"
   height="101"
   width="211"
   y="18"
   x="250" /><path
   style="fill:none;stroke:#000000;stroke-width:1"
   inkscape:connector-curvature="0"
   id="path10"
   d="m 6.5,119.5 200,0" /><path
   style="fill:none;stroke:#000000;stroke-width:1"
   inkscape:connector-curvature="0"
   id="path12"
   d="m 256.5,119.5 200,0" /><path
   style="fill:none;stroke:#000000;stroke-width:1"
   inkscape:connector-curvature="0"
   id="path14"
   d="m 18,119 0,5" /><path
   style="fill:none;stroke:#000000;stroke-width:1"
   inkscape:connector-curvature="0"
   id="path16"
   d="m 268,119 0,5" /><path
   style="fill:none;stroke:#000000;stroke-width:1"
   inkscape:connector-curvature="0"
   id="path18"
   d="m 80,119 0,5" /><path
   style="fill:none;stroke:#000000;stroke-width:1"
   inkscape:connector-curvature="0"
   id="path20"
   d="m 330,119 0,5" /><path
   style="fill:none;stroke:#000000;stroke-width:1"
   inkscape:connector-curvature="0"
   id="path22"
   d="m 142,119 0,5" /><path
   style="fill:none;stroke:#000000;stroke-width:1"
   inkscape:connector-curvature="0"
   id="path24"
   d="m 392,119 0,5" /><path
   style="fill:none;stroke:#000000;stroke-width:1"
   inkscape:connector-curvature="0"
   id="path26"
   d="m 204,119 0,5" /><path
   style="fill:none;stroke:#000000;stroke-width:1"
   inkscape:connector-curvature="0"
   id="path28"
   d="m 454,119 0,5" /><text
   id="text30"
   style="font-size:15px;text-align:center;color:#000000;fill:#000000;font-family:Symbol"
   width="12"
   y="138"
   x="137"><tspan
     id="tspan32">θ</tspan></text>

<text
   id="text34"
   style="font-size:15px;text-align:center;color:#000000;fill:#000000;font-family:Symbol"
   width="12"
   y="138"
   x="387"><tspan
     id="tspan36">θ</tspan></text>

<text
   id="text38"
   style="font-size:15px;text-align:center;color:#000000;fill:#000000;font-family:Arial"
   width="106"
   y="154"
   x="106"><tspan
     id="tspan40">Distribution of θ</tspan><tspan
     id="tspan42"
     style="font-family:Symbol" /></text>

<text
   id="text44"
   style="font-size:15px;text-align:center;color:#000000;fill:#000000;font-family:Arial"
   width="106"
   y="154"
   x="352"><tspan
     id="tspan46">Distribution of θ</tspan><tspan
     id="tspan48"
     style="font-family:Symbol" /></text>

<text
   id="text50"
   style="font-size:15px;text-align:center;color:#000000;fill:#000000;font-family:Arial"
   width="12"
   y="146"
   x="202"><tspan
     id="tspan52">^</tspan></text>

<text
   id="text54"
   style="font-size:15px;text-align:center;color:#000000;fill:#000000;font-family:Arial"
   width="12"
   y="146"
   x="448"><tspan
     id="tspan56">^</tspan></text>

<text
   id="text58"
   style="font-size:14px;font-weight:bold;text-align:center;color:#ff0000;fill:#ff0000;font-family:Arial"
   width="64"
   y="46"
   x="144.54248"><tspan
     id="tspan60">Bad</tspan></text>

<text
   id="text62"
   style="font-size:14px;font-weight:bold;text-align:center;color:#009900;fill:#009900;font-family:Arial"
   width="64"
   y="46"
   x="286.98877"><tspan
     id="tspan64">Better</tspan></text>

<text
   id="text66"
   style="font-size:16px;font-weight:bold;text-align:left;color:#000000;fill:#000000;font-family:Arial"
   width="54"
   y="13"
   x="72"><tspan
     id="tspan68">Biased</tspan></text>

<text
   id="text70"
   style="font-size:16px;font-weight:bold;text-align:left;color:#000000;fill:#000000;font-family:Arial"
   width="73"
   y="13"
   x="321"><tspan
     id="tspan72">Unbiased</tspan></text>

<path
   style="fill:#97cbff"
   inkscape:connector-curvature="0"
   id="path74"
   d="m 11,119 c 4.5,-0.5 15,-3 19,-6 4,-3 17,-20.5 24,-39 7,-18.5 17.5,-50 25,-50 7.5,0 13.5,13.5 20,30 6.5,16.5 18,50.5 30,58 12,7.5 22,7 22,7 0,0 -144.5,0.5 -140,0 z" /><path
   style="fill:#97cbff"
   inkscape:connector-curvature="0"
   id="path76"
   d="m 322,119 c 4.5,-0.5 15,-3 19,-6 4,-3 17,-20.5 24,-39 7,-18.5 17.5,-50 25,-50 7.5,0 13.5,13.5 20,30 6.5,16.5 18,50.5 30,58 12,7.5 22,7 22,7 0,0 -144.5,0.5 -140,0 z" />
<text
   x="126"
   y="59"
   width="64"
   style="font-size:14px;font-weight:bold;text-align:center;color:#ff0000;fill:#ff0000;font-family:Arial"
   id="text3096"><tspan
     id="tspan3098">estimator</tspan></text>

<text
   x="276"
   y="58"
   width="64"
   style="font-size:14px;font-weight:bold;text-align:center;color:#009900;fill:#009900;font-family:Arial"
   id="text3100"><tspan
     id="tspan3102">estimator</tspan></text>

</svg>