<?xml version="1.0" encoding="UTF-8" standalone="no"?>
<!-- Generator: Adobe Fireworks CS6, Export SVG Extension by Aaron Beall (http://fireworks.abeall.com) . Version: 0.6.1  -->

<svg
   xmlns:dc="http://purl.org/dc/elements/1.1/"
   xmlns:cc="http://creativecommons.org/ns#"
   xmlns:rdf="http://www.w3.org/1999/02/22-rdf-syntax-ns#"
   xmlns:svg="http://www.w3.org/2000/svg"
   xmlns="http://www.w3.org/2000/svg"
   xmlns:sodipodi="http://sodipodi.sourceforge.net/DTD/sodipodi-0.dtd"
   xmlns:inkscape="http://www.inkscape.org/namespaces/inkscape"
   id="estimatorDistn-Page%201"
   viewBox="0 0 382 196"
   style="background-color:#ffffff00"
   version="1.1"
   xml:space="preserve"
   x="0px"
   y="0px"
   width="382px"
   height="196px"
   inkscape:version="0.48.2 r9819"
   sodipodi:docname="estimatorDistn.svg"><metadata
   id="metadata28"><rdf:RDF><cc:Work
       rdf:about=""><dc:format>image/svg+xml</dc:format><dc:type
         rdf:resource="http://purl.org/dc/dcmitype/StillImage" /></cc:Work></rdf:RDF></metadata><defs
   id="defs26">
		
		
		
		
		
		
		
	</defs><sodipodi:namedview
   pagecolor="#ffffff"
   bordercolor="#666666"
   borderopacity="1"
   objecttolerance="10"
   gridtolerance="10"
   guidetolerance="10"
   inkscape:pageopacity="0"
   inkscape:pageshadow="2"
   inkscape:window-width="1014"
   inkscape:window-height="628"
   id="namedview24"
   showgrid="false"
   inkscape:zoom="2"
   inkscape:cx="191"
   inkscape:cy="98"
   inkscape:window-x="0"
   inkscape:window-y="0"
   inkscape:window-maximized="0"
   inkscape:current-layer="estimatorDistn-Page%201" />
	<rect
   style="fill:#ffffff"
   id="rect4"
   height="172"
   width="381"
   y="0"
   x="1" /><path
   style="fill:#bfdfff;stroke:#424251;stroke-width:1"
   inkscape:connector-curvature="0"
   id="path6"
   d="m 1,172 c 14,0 37,-4 45,-23 8,-19 26,-62.5 32,-85 5.9764,-22.4116 20.5,-46 32,-47 13.4585,-1.1703 24.453,6.6795 30,15 9,13.5 22,40 38,65 16,25 17.5,34 53,50 28.3062,12.7577 44,13 63,17 21.5,3.5 63.8516,8.3829 79,8 16.1417,-0.408 6,0 6,0 0,0 -392,0 -378,0 z" /><path
   style="fill:none;stroke:#424251;stroke-width:1"
   inkscape:connector-curvature="0"
   d="m 1.5,171.5 377,0"
   id="Line" /><text
   id="text9"
   style="font-size:18px;text-align:center;color:#000000;fill:#000000;font-family:Arial"
   width="128"
   y="34"
   x="227">Distribution of θ</text>
<text
   id="text15"
   style="font-size:18px;text-align:center;color:#000000;fill:#000000;font-family:Arial"
   width="12"
   y="25"
   x="343"><tspan
     id="tspan17">^</tspan></text>
<text
   id="text19"
   style="font-size:18px;text-align:center;color:#000000;fill:#000000;font-family:Symbol"
   width="14"
   y="195"
   x="122"><tspan
     id="tspan21">θ</tspan></text>
<path
   style="fill:none;stroke:#424251;stroke-width:1"
   inkscape:connector-curvature="0"
   d="m 127.5,171.5 0,9"
   id="Line2" />
</svg>