<?xml version="1.0" encoding="UTF-8" standalone="no"?>
<!-- Generator: Adobe Fireworks CS6, Export SVG Extension by Aaron Beall (http://fireworks.abeall.com) . Version: 0.6.1  -->

<svg
   xmlns:dc="http://purl.org/dc/elements/1.1/"
   xmlns:cc="http://creativecommons.org/ns#"
   xmlns:rdf="http://www.w3.org/1999/02/22-rdf-syntax-ns#"
   xmlns:svg="http://www.w3.org/2000/svg"
   xmlns="http://www.w3.org/2000/svg"
   xmlns:sodipodi="http://sodipodi.sourceforge.net/DTD/sodipodi-0.dtd"
   xmlns:inkscape="http://www.inkscape.org/namespaces/inkscape"
   id="Untitled-Page%201"
   viewBox="0 0 467 157"
   style="background-color:#ffffff00"
   version="1.1"
   xml:space="preserve"
   x="0px"
   y="0px"
   width="467px"
   height="157px"
   inkscape:version="0.48.2 r9819"
   sodipodi:docname="se.svg"><metadata
   id="metadata76"><rdf:RDF><cc:Work
       rdf:about=""><dc:format>image/svg+xml</dc:format><dc:type
         rdf:resource="http://purl.org/dc/dcmitype/StillImage" /></cc:Work></rdf:RDF></metadata><defs
   id="defs74">
		
		
		
		
		
		
		
		
		
		
		
		
		
		
		
		
		
		
		
		
		
		
	
		
		
		
		
		
		
		
		
		
		
		
		
		
		
		
		
		
		
		
		
		
		
		
		
		
	</defs><sodipodi:namedview
   pagecolor="#ffffff"
   bordercolor="#666666"
   borderopacity="1"
   objecttolerance="10"
   gridtolerance="10"
   guidetolerance="10"
   inkscape:pageopacity="0"
   inkscape:pageshadow="2"
   inkscape:window-width="1193"
   inkscape:window-height="692"
   id="namedview72"
   showgrid="false"
   inkscape:zoom="2"
   inkscape:cx="234.89157"
   inkscape:cy="78.5"
   inkscape:window-x="192"
   inkscape:window-y="57"
   inkscape:window-maximized="0"
   inkscape:current-layer="Untitled-Page%201" />
	<rect
   style="fill:#ffffff"
   id="rect4"
   height="101"
   width="201"
   y="18"
   x="262" /><rect
   style="fill:#ffffff"
   id="rect6"
   height="101"
   width="201"
   y="18"
   x="5" /><path
   style="fill:none;stroke:#000000;stroke-width:1"
   inkscape:connector-curvature="0"
   id="path10"
   d="m 5.5,119.5 200,0" /><text
   id="text12"
   style="font-size:14px;font-weight:bold;text-align:center;color:#ff0000;fill:#ff0000;font-family:Arial"
   width="64"
   y="35"
   x="141.58203"><tspan
     id="tspan14">Worse</tspan></text>

<path
   style="fill:none;stroke:#000000;stroke-width:1"
   inkscape:connector-curvature="0"
   id="path18"
   d="m 262.5,119.5 200,0" /><text
   id="text20"
   style="font-size:14px;font-weight:bold;text-align:center;color:#009900;fill:#009900;font-family:Arial"
   width="64"
   y="35"
   x="403.98877"><tspan
     id="tspan22">Better</tspan></text>

<text
   id="text24"
   style="font-size:16px;font-weight:bold;text-align:center;color:#000000;fill:#000000;font-family:Arial"
   width="96"
   y="13"
   x="54"><tspan
     id="tspan26">Less precise</tspan></text>

<text
   id="text28"
   style="font-size:16px;font-weight:bold;text-align:center;color:#000000;fill:#000000;font-family:Arial"
   width="100"
   y="13"
   x="312"><tspan
     id="tspan30">More precise</tspan></text>

<path
   style="fill:none;stroke:#000000;stroke-width:1"
   inkscape:connector-curvature="0"
   id="path32"
   d="m 25,119 0,5" /><path
   style="fill:none;stroke:#000000;stroke-width:1"
   inkscape:connector-curvature="0"
   id="path34"
   d="m 104,119 0,5" /><path
   style="fill:none;stroke:#000000;stroke-width:1"
   inkscape:connector-curvature="0"
   id="path36"
   d="m 184,119 0,5" /><text
   id="text38"
   style="font-size:15px;text-align:center;color:#000000;fill:#000000;font-family:Symbol"
   width="12"
   y="138"
   x="99"><tspan
     id="tspan40">θ</tspan></text>

<text
   id="text42"
   style="font-size:15px;text-align:center;color:#000000;fill:#000000;font-family:Arial"
   width="106"
   y="156"
   x="93"><tspan
     id="tspan44">Distribution of θ</tspan><tspan
     id="tspan46"
     style="font-family:Symbol" /></text>

<text
   id="text48"
   style="font-size:15px;text-align:center;color:#000000;fill:#000000;font-family:Arial"
   width="12"
   y="148"
   x="189"><tspan
     id="tspan50">^</tspan></text>

<path
   style="fill:none;stroke:#000000;stroke-width:1"
   inkscape:connector-curvature="0"
   id="path52"
   d="m 285,119 0,5" /><path
   style="fill:none;stroke:#000000;stroke-width:1"
   inkscape:connector-curvature="0"
   id="path54"
   d="m 364,119 0,5" /><path
   style="fill:none;stroke:#000000;stroke-width:1"
   inkscape:connector-curvature="0"
   id="path56"
   d="m 444,119 0,5" /><text
   id="text58"
   style="font-size:15px;text-align:center;color:#000000;fill:#000000;font-family:Symbol"
   width="12"
   y="138"
   x="359"><tspan
     id="tspan60">θ</tspan></text>

<text
   id="text62"
   style="font-size:15px;text-align:center;color:#000000;fill:#000000;font-family:Arial"
   width="106"
   y="156"
   x="353"><tspan
     id="tspan64">Distribution of θ</tspan><tspan
     id="tspan66"
     style="font-family:Symbol" /></text>

<text
   id="text68"
   style="font-size:15px;text-align:center;color:#000000;fill:#000000;font-family:Arial"
   width="12"
   y="148"
   x="449"><tspan
     id="tspan70">^</tspan></text>


<text
   x="130.80176"
   y="48"
   width="64"
   style="font-size:14px;font-weight:bold;text-align:center;color:#ff0000;fill:#ff0000;font-family:Arial"
   id="text3087"><tspan
     id="tspan3089">estimator</tspan></text>

<text
   x="393"
   y="48"
   width="64"
   style="font-size:14px;font-weight:bold;text-align:center;color:#009900;fill:#009900;font-family:Arial"
   id="text3091"><tspan
     id="tspan3093">estimator</tspan></text>

<path
   style="fill:#97cbff"
   inkscape:connector-curvature="0"
   id="path74"
   d="m 294.8223,118.88889 c 4.5,-0.52632 15,-3.15789 19,-6.31579 4,-3.15789 17,-21.578947 24,-41.052632 7,-19.473684 17.5,-52.631579 25,-52.631579 7.5,0 13.5,14.210526 20,31.578947 6.5,17.368421 18,53.157894 30,61.052634 12,7.89474 22,7.36842 22,7.36842 0,0 -144.5,0.52632 -140,0 z" /><path
   d="m 4.8465521,118.88889 c 6.4117209,-0.37895 21.3724019,-2.27368 27.0717079,-4.54737 5.699309,-2.27368 24.222057,-15.536841 34.195843,-29.557894 9.973789,-14.021053 24.934466,-37.894737 35.620657,-37.894737 10.68623,0 19.23516,10.231579 28.49655,22.736842 9.26138,12.505263 25.64687,38.273679 42.74481,43.957899 17.09791,5.68421 31.34618,5.30526 31.34618,5.30526 0,0 -205.8874686,0.37895 -199.4757479,0 z"
   id="path3113"
   inkscape:connector-curvature="0"
   style="fill:#97cbff" /></svg>