<?xml version="1.0" encoding="UTF-8" standalone="no"?>
<!-- Generator: Adobe Fireworks CS6, Export SVG Extension by Aaron Beall (http://fireworks.abeall.com) . Version: 0.6.1  -->

<svg
   xmlns:dc="http://purl.org/dc/elements/1.1/"
   xmlns:cc="http://creativecommons.org/ns#"
   xmlns:rdf="http://www.w3.org/1999/02/22-rdf-syntax-ns#"
   xmlns:svg="http://www.w3.org/2000/svg"
   xmlns="http://www.w3.org/2000/svg"
   xmlns:sodipodi="http://sodipodi.sourceforge.net/DTD/sodipodi-0.dtd"
   xmlns:inkscape="http://www.inkscape.org/namespaces/inkscape"
   id="girlsCdf-Page%201"
   viewBox="0 0 446 303"
   style="background-color:#ffffff00"
   version="1.1"
   xml:space="preserve"
   x="0px"
   y="0px"
   width="446px"
   height="303px"
   inkscape:version="0.48.2 r9819"
   sodipodi:docname="girlsCdf.svg"><metadata
   id="metadata159"><rdf:RDF><cc:Work
       rdf:about=""><dc:format>image/svg+xml</dc:format><dc:type
         rdf:resource="http://purl.org/dc/dcmitype/StillImage" /></cc:Work></rdf:RDF></metadata><defs
   id="defs157">
		
		
		
		
		
		
		
		
		
		
		
		
		
		
		
		
		
		
		
		
		
		
		
		
		
		
		
		
		
		
		
		
		
		
		
		
		
		
		
		
		
		
		
		
		
		
		
		
		
		
		
		
		
	</defs><sodipodi:namedview
   pagecolor="#ffffff"
   bordercolor="#666666"
   borderopacity="1"
   objecttolerance="10"
   gridtolerance="10"
   guidetolerance="10"
   inkscape:pageopacity="0"
   inkscape:pageshadow="2"
   inkscape:window-width="1488"
   inkscape:window-height="1003"
   id="namedview155"
   showgrid="false"
   inkscape:zoom="2"
   inkscape:cx="-1537"
   inkscape:cy="151.5"
   inkscape:window-x="0"
   inkscape:window-y="0"
   inkscape:window-maximized="0"
   inkscape:current-layer="girlsCdf-Page%201" />
	<rect
   style="fill:#ffffff;stroke:#9797a6;stroke-width:1"
   id="rect4"
   height="253"
   width="380"
   y="27"
   x="47" /><g
   id="Group%3A%20Arrowheads">
			<path
   style="fill:none;stroke:#000000;stroke-width:1"
   inkscape:connector-curvature="0"
   d="m 47.5,15.5 0,265"
   id="Line" />
			<path
   style="fill:#000000"
   inkscape:connector-curvature="0"
   id="path8"
   d="m 47.5,9.3493 c 1.0083,2.5585 2.7287,5.7328 4.55,7.7 L 47.5,15.5 42.95,17.0493 c 1.8213,-1.9672 3.5422,-5.1415 4.55,-7.7 z" />
		</g><text
   id="text10"
   style="font-size:15px;text-align:left;color:#000000;fill:#000000;font-family:Arial"
   width="31"
   y="13"
   x="54"><tspan
     id="tspan12">F(x)</tspan></text>
<text
   id="text14"
   style="font-size:15px;text-align:left;color:#000000;fill:#000000;font-family:Arial"
   width="12"
   y="298"
   x="429"><tspan
     id="tspan16">x</tspan></text>
<path
   style="fill:none;stroke:#000000;stroke-width:1"
   inkscape:connector-curvature="0"
   d="m 37.5,27.5 10,0"
   id="Line2" /><path
   style="fill:none;stroke:#000000;stroke-width:1"
   inkscape:connector-curvature="0"
   d="m 37.5,52.5 10,0"
   id="Line3" /><path
   style="fill:none;stroke:#000000;stroke-width:1"
   inkscape:connector-curvature="0"
   d="m 37.5,77.5 10,0"
   id="Line4" /><path
   style="fill:none;stroke:#000000;stroke-width:1"
   inkscape:connector-curvature="0"
   d="m 37.5,102.5 10,0"
   id="Line5" /><path
   style="fill:none;stroke:#000000;stroke-width:1"
   inkscape:connector-curvature="0"
   d="m 37.5,127.5 10,0"
   id="Line6" /><path
   style="fill:none;stroke:#000000;stroke-width:1"
   inkscape:connector-curvature="0"
   d="m 37.5,153.5 10,0"
   id="Line7" /><path
   style="fill:none;stroke:#000000;stroke-width:1"
   inkscape:connector-curvature="0"
   d="m 37.5,203.5 10,0"
   id="Line8" /><path
   style="fill:none;stroke:#000000;stroke-width:1"
   inkscape:connector-curvature="0"
   d="m 37.5,228.5 10,0"
   id="Line9" /><path
   style="fill:none;stroke:#000000;stroke-width:1"
   inkscape:connector-curvature="0"
   d="m 37.5,253.5 10,0"
   id="Line10" /><path
   style="fill:none;stroke:#000000;stroke-width:1"
   inkscape:connector-curvature="0"
   d="m 37.5,178.5 10,0"
   id="Line11" /><text
   id="text28"
   style="font-size:15px;text-align:left;color:#000000;fill:#000000;font-family:Arial"
   width="12"
   y="301"
   x="59"><tspan
     id="tspan30">0</tspan></text>
<text
   id="text32"
   style="font-size:15px;text-align:left;color:#000000;fill:#000000;font-family:Arial"
   width="12"
   y="301"
   x="118"><tspan
     id="tspan34">1</tspan></text>
<text
   id="text36"
   style="font-size:15px;text-align:left;color:#000000;fill:#000000;font-family:Arial"
   width="12"
   y="301"
   x="177"><tspan
     id="tspan38">2</tspan></text>
<text
   id="text40"
   style="font-size:15px;text-align:left;color:#000000;fill:#000000;font-family:Arial"
   width="12"
   y="301"
   x="237"><tspan
     id="tspan42">3</tspan></text>
<text
   id="text44"
   style="font-size:15px;text-align:left;color:#000000;fill:#000000;font-family:Arial"
   width="12"
   y="301"
   x="296"><tspan
     id="tspan46">4</tspan></text>
<text
   id="text48"
   style="font-size:15px;text-align:left;color:#000000;fill:#000000;font-family:Arial"
   width="12"
   y="301"
   x="355"><tspan
     id="tspan50">5</tspan></text>
<text
   id="text52"
   style="font-size:15px;text-align:left;color:#000000;fill:#000000;font-family:Arial"
   width="12"
   y="301"
   x="415"><tspan
     id="tspan54">6</tspan></text>
<text
   id="text56"
   style="font-size:15px;text-align:left;color:#000000;fill:#000000;font-family:Arial"
   width="12"
   y="32"
   x="25"><tspan
     id="tspan58">1</tspan></text>
<text
   id="text60"
   style="font-size:15px;text-align:left;color:#000000;fill:#000000;font-family:Arial"
   width="24"
   y="232"
   x="13"><tspan
     id="tspan62">0.2</tspan></text>
<text
   id="text64"
   style="font-size:15px;text-align:left;color:#000000;fill:#000000;font-family:Arial"
   width="24"
   y="182"
   x="13"><tspan
     id="tspan66">0.4</tspan></text>
<text
   id="text68"
   style="font-size:15px;text-align:left;color:#000000;fill:#000000;font-family:Arial"
   width="24"
   y="132"
   x="13"><tspan
     id="tspan70">0.6</tspan></text>
<text
   id="text72"
   style="font-size:15px;text-align:left;color:#000000;fill:#000000;font-family:Arial"
   width="24"
   y="82"
   x="13"><tspan
     id="tspan74">0.8</tspan></text>
<g
   id="Group%3A%20Arrowheads2">
			<path
   style="fill:none;stroke:#000000;stroke-width:1"
   inkscape:connector-curvature="0"
   d="m 37.5,279.5 402,0"
   id="Line12" />
			<path
   style="fill:#000000"
   inkscape:connector-curvature="0"
   id="path78"
   d="m 445.6507,279.5 c -2.5585,1.0083 -5.7328,2.7287 -7.7,4.55 l 1.5493,-4.55 -1.5493,-4.55 c 1.9672,1.8213 5.1415,3.5422 7.7,4.55 z" />
		</g><path
   style="fill:none;stroke:#000000;stroke-width:1"
   inkscape:connector-curvature="0"
   d="m 122.5,279.5 0,9"
   id="Line13" /><path
   style="fill:none;stroke:#000000;stroke-width:1"
   inkscape:connector-curvature="0"
   d="m 63.5,279.5 0,9"
   id="Line14" /><path
   style="fill:none;stroke:#000000;stroke-width:1"
   inkscape:connector-curvature="0"
   d="m 181.5,279.5 0,9"
   id="Line15" /><path
   style="fill:none;stroke:#000000;stroke-width:1"
   inkscape:connector-curvature="0"
   d="m 241.5,279.5 0,9"
   id="Line16" /><path
   style="fill:none;stroke:#000000;stroke-width:1"
   inkscape:connector-curvature="0"
   d="m 300.5,279.5 0,9"
   id="Line17" /><path
   style="fill:none;stroke:#000000;stroke-width:1"
   inkscape:connector-curvature="0"
   d="m 359.5,279.5 0,9"
   id="Line18" /><path
   style="fill:none;stroke:#000000;stroke-width:1"
   inkscape:connector-curvature="0"
   d="m 419.5,279.5 0,9"
   id="Line19" /><path
   style="fill:none;stroke:#dbdbea;stroke-width:1"
   inkscape:connector-curvature="0"
   d="m 300.5,278.5 0,-250"
   id="Line20" /><path
   style="fill:none;stroke:#dbdbea;stroke-width:1"
   inkscape:connector-curvature="0"
   d="m 241.5,278.5 0,-250"
   id="Line21" /><path
   style="fill:none;stroke:#dbdbea;stroke-width:1"
   inkscape:connector-curvature="0"
   d="m 181.5,278.5 0,-250"
   id="Line22" /><path
   style="fill:none;stroke:#dbdbea;stroke-width:1"
   inkscape:connector-curvature="0"
   d="m 122.5,278.5 0,-250"
   id="Line23" /><path
   style="fill:none;stroke:#dbdbea;stroke-width:1"
   inkscape:connector-curvature="0"
   d="m 63.5,278.5 0,-250"
   id="Line24" /><path
   style="fill:none;stroke:#dbdbea;stroke-width:1"
   inkscape:connector-curvature="0"
   d="m 359.5,278.5 0,-250"
   id="Line25" /><path
   style="fill:none;stroke:#dbdbea;stroke-width:1"
   inkscape:connector-curvature="0"
   d="m 419.5,278.5 0,-250"
   id="Line26" /><path
   style="fill:none;stroke:#ff0000;stroke-width:3"
   inkscape:connector-curvature="0"
   id="path94"
   d="m 2,279 61.5,0.5 -0.5,-62.5 59,0 0,-127 59,0 0,-32 60,0 0,-15 59,0 0,-16 126,0" /><text
   id="text96"
   style="font-size:15px;text-align:left;color:#000000;fill:#000000;font-family:Arial"
   width="12"
   y="283"
   x="25"><tspan
     id="tspan98">0</tspan></text>
<text
   id="text100"
   style="font-size:15px;text-align:left;color:#007fff;fill:#007fff;font-family:Arial"
   width="30"
   y="254"
   x="77"><tspan
     id="tspan102">p(0)</tspan></text>
<text
   id="text104"
   style="font-size:15px;text-align:left;color:#007fff;fill:#007fff;font-family:Arial"
   width="30"
   y="161"
   x="137"><tspan
     id="tspan106">p(1)</tspan></text>
<text
   id="text108"
   style="font-size:15px;text-align:left;color:#007fff;fill:#007fff;font-family:Arial"
   width="30"
   y="78"
   x="196"><tspan
     id="tspan110">p(2)</tspan></text>
<text
   id="text112"
   style="font-size:15px;text-align:left;color:#007fff;fill:#007fff;font-family:Arial"
   width="30"
   y="56"
   x="256"><tspan
     id="tspan114">p(3)</tspan></text>
<text
   id="text116"
   style="font-size:15px;text-align:left;color:#007fff;fill:#007fff;font-family:Arial"
   width="30"
   y="40"
   x="315"><tspan
     id="tspan118">p(4)</tspan></text>
<g
   id="g120">
			<path
   style="fill:none;stroke:#007fff;stroke-width:1"
   inkscape:connector-curvature="0"
   d="m 71.5,274.5 0,-50"
   id="Line27" />
			<path
   style="fill:#007fff"
   inkscape:connector-curvature="0"
   id="path123"
   d="m 71.5,278.6507 c -1.0083,-2.5585 -2.7287,-5.7328 -4.55,-7.7 l 4.55,1.5493 4.55,-1.5493 c -1.8213,1.9672 -3.5422,5.1415 -4.55,7.7 z" />
			<path
   style="fill:#007fff"
   inkscape:connector-curvature="0"
   id="path125"
   d="m 71.5,219.3493 c 1.0083,2.5585 2.7287,5.7328 4.55,7.7 L 71.5,225.5 l -4.55,1.5493 c 1.8213,-1.9672 3.5422,-5.1415 4.55,-7.7 z" />
		</g><g
   id="g127">
			<path
   style="fill:none;stroke:#007fff;stroke-width:1"
   inkscape:connector-curvature="0"
   d="m 131.5,213.5 0,-116"
   id="Line28" />
			<path
   style="fill:#007fff"
   inkscape:connector-curvature="0"
   id="path130"
   d="m 131.5,217.6507 c -1.0083,-2.5585 -2.7287,-5.7328 -4.55,-7.7 l 4.55,1.5493 4.55,-1.5493 c -1.8213,1.9672 -3.5422,5.1415 -4.55,7.7 z" />
			<path
   style="fill:#007fff"
   inkscape:connector-curvature="0"
   id="path132"
   d="m 131.5,93.3493 c 1.0083,2.5585 2.7287,5.7328 4.55,7.7 L 131.5,99.5 l -4.55,1.5493 c 1.8213,-1.9672 3.5422,-5.1415 4.55,-7.7 z" />
		</g><g
   id="g134">
			<path
   style="fill:none;stroke:#007fff;stroke-width:1"
   inkscape:connector-curvature="0"
   d="m 190.5,85.5 0,-21"
   id="Line29" />
			<path
   style="fill:#007fff"
   inkscape:connector-curvature="0"
   id="path137"
   d="m 190.5,90.6507 c -1.0083,-2.5585 -2.7287,-5.7328 -4.55,-7.7 l 4.55,1.5493 4.55,-1.5493 c -1.8213,1.9672 -3.5422,5.1415 -4.55,7.7 z" />
			<path
   style="fill:#007fff"
   inkscape:connector-curvature="0"
   id="path139"
   d="m 190.5,60.3493 c 1.0083,2.5585 2.7287,5.7328 4.55,7.7 L 190.5,66.5 l -4.55,1.5493 c 1.8213,-1.9672 3.5422,-5.1415 4.55,-7.7 z" />
		</g><g
   id="g141">
			<path
   style="fill:none;stroke:#007fff;stroke-width:1"
   inkscape:connector-curvature="0"
   d="m 250.5,56.5 0,-7"
   id="Line30" />
			<path
   style="fill:#007fff"
   inkscape:connector-curvature="0"
   id="path144"
   d="m 250.5,61.6507 c -1.0083,-2.5585 -2.7287,-5.7328 -4.55,-7.7 l 4.55,1.5493 4.55,-1.5493 c -1.8213,1.9672 -3.5422,5.1415 -4.55,7.7 z" />
			<path
   style="fill:#007fff"
   inkscape:connector-curvature="0"
   id="path146"
   d="m 250.5,44.3493 c 1.0083,2.5585 2.7287,5.7328 4.55,7.7 L 250.5,50.5 l -4.55,1.5493 c 1.8213,-1.9672 3.5422,-5.1415 4.55,-7.7 z" />
		</g><g
   id="g148">
			<path
   style="fill:none;stroke:#007fff;stroke-width:1"
   inkscape:connector-curvature="0"
   d="m 309.5,40.5 0,-7"
   id="Line31" />
			<path
   style="fill:#007fff"
   inkscape:connector-curvature="0"
   id="path151"
   d="m 309.5,45.6507 c -1.0083,-2.5585 -2.7287,-5.7328 -4.55,-7.7 l 4.55,1.5493 4.55,-1.5493 c -1.8213,1.9672 -3.5422,5.1415 -4.55,7.7 z" />
			<path
   style="fill:#007fff"
   inkscape:connector-curvature="0"
   id="path153"
   d="m 309.5,28.3493 c 1.0083,2.5585 2.7287,5.7328 4.55,7.7 L 309.5,34.5 l -4.55,1.5493 c 1.8213,-1.9672 3.5422,-5.1415 4.55,-7.7 z" />
		</g>
</svg>