<?xml version="1.0" encoding="UTF-8" standalone="no"?>
<!-- Generator: Adobe Fireworks CS6, Export SVG Extension by Aaron Beall (http://fireworks.abeall.com) . Version: 0.6.1  -->

<svg
   xmlns:dc="http://purl.org/dc/elements/1.1/"
   xmlns:cc="http://creativecommons.org/ns#"
   xmlns:rdf="http://www.w3.org/1999/02/22-rdf-syntax-ns#"
   xmlns:svg="http://www.w3.org/2000/svg"
   xmlns="http://www.w3.org/2000/svg"
   xmlns:sodipodi="http://sodipodi.sourceforge.net/DTD/sodipodi-0.dtd"
   xmlns:inkscape="http://www.inkscape.org/namespaces/inkscape"
   id="chi2Tail-Page%201"
   viewBox="0 0 499 185"
   style="background-color:#ffffff00"
   version="1.1"
   xml:space="preserve"
   x="0px"
   y="0px"
   width="499px"
   height="185px"
   inkscape:version="0.48.2 r9819"
   sodipodi:docname="chi2Tail.svg"><metadata
   id="metadata47"><rdf:RDF><cc:Work
       rdf:about=""><dc:format>image/svg+xml</dc:format><dc:type
         rdf:resource="http://purl.org/dc/dcmitype/StillImage" /></cc:Work></rdf:RDF></metadata><defs
   id="defs45">
		
		
		
		
		
		
		
		
		
	</defs><sodipodi:namedview
   pagecolor="#ffffff"
   bordercolor="#666666"
   borderopacity="1"
   objecttolerance="10"
   gridtolerance="10"
   guidetolerance="10"
   inkscape:pageopacity="0"
   inkscape:pageshadow="2"
   inkscape:window-width="1448"
   inkscape:window-height="983"
   id="namedview43"
   showgrid="false"
   inkscape:zoom="4"
   inkscape:cx="475.12304"
   inkscape:cy="52.25"
   inkscape:window-x="107"
   inkscape:window-y="0"
   inkscape:window-maximized="0"
   inkscape:current-layer="chi2Tail-Page%201" />
	<text
   id="text6"
   style="font-size:14px;text-align:left;color:#000000;fill:#000000;font-family:Arial"
   width="12"
   y="181"
   x="4"><tspan
     id="tspan8">0</tspan></text>



<text
   id="text10"
   style="font-size:14px;text-align:left;color:#000000;fill:#000000;font-family:Arial"
   width="20"
   y="181"
   x="95"><tspan
     id="tspan12">10</tspan></text>



<text
   id="text14"
   style="font-size:14px;text-align:left;color:#000000;fill:#000000;font-family:Arial"
   width="20"
   y="181"
   x="191"><tspan
     id="tspan16">20</tspan></text>



<text
   id="text18"
   style="font-size:14px;text-align:left;color:#000000;fill:#000000;font-family:Arial"
   width="20"
   y="181"
   x="286"><tspan
     id="tspan20">30</tspan></text>



<text
   id="text22"
   style="font-size:14px;text-align:left;color:#000000;fill:#000000;font-family:Arial"
   width="20"
   y="181"
   x="382"><tspan
     id="tspan24">40</tspan></text>



<text
   id="text26"
   style="font-size:14px;text-align:left;color:#000000;fill:#000000;font-family:Arial"
   width="20"
   y="181"
   x="477"><tspan
     id="tspan28">50</tspan></text>



<text
   id="text30"
   style="font-size:20px;text-align:left;color:#0000b2;fill:#0000b2;font-family:Arial"
   width="201"
   y="39"
   x="262">P(X</text>



<g
   id="Group%3A%20Arrowheads">
			<path
   style="fill:none;stroke:#00008c;stroke-width:1"
   inkscape:connector-curvature="0"
   d="m 348.5,45.5 89,106"
   id="Line" />
			<path
   style="fill:#00008c"
   inkscape:connector-curvature="0"
   id="path40"
   d="m 444.2801,159.5751 c -4.1441,-2.2474 -9.9019,-4.5185 -14.4616,-5.0936 L 437.5,151.5 l 4.2658,-7.0496 c -0.2226,4.5904 1.0171,10.6548 2.5143,15.1247 z" />
		</g>
	<g
   id="Layer%201">
	</g>
<text
   x="297.5"
   y="28"
   width="201"
   style="font-size:20px;text-align:left;color:#0000b2;fill:#0000b2;font-family:Arial"
   id="text3044"><tspan
     style="font-size:16px"
     id="tspan3048">2</tspan></text>



<text
   x="309"
   y="39"
   width="201"
   style="font-size:20px;text-align:left;color:#0000b2;fill:#0000b2;font-family:Arial"
   id="text3001">&gt; 43.7) = 0.0010</text>

<path
   style="fill:#ffd5d5;fill-opacity:1;stroke:none"
   d="m 41.5,163 c 7,0 23,-3.5 28,-7 C 74.5,152.5 92,131 98,118.5 104,106 116,83 123.5,65 131,47 136.5,36.5 146,25 c 9.5,-11.5 12.5,-15 23,-15 10.5,0 18,6.5 23.5,11.5 5.5,5 18.5,20 31.5,38.5 13,18.5 34,44.5 43,53 9,8.5 26,23 40.5,30.5 13.52893,6.99772 41.5,14.5 55.5,15.5 14,1 45,2.2 65,2.7 20,0.5 56.5,1.3 56.5,1.3 z"
   id="path3002"
   inkscape:connector-curvature="0"
   sodipodi:nodetypes="cssssssssssscc" /><path
   style="fill:none;stroke:#000000;stroke-width:1px;stroke-linecap:butt;stroke-linejoin:miter;stroke-opacity:1"
   d="m 8,163.5 477.5,0"
   id="path3008"
   inkscape:connector-curvature="0"
   sodipodi:nodetypes="cc" /><path
   style="fill:none;stroke:#000000;stroke-width:1px;stroke-linecap:butt;stroke-linejoin:miter;stroke-opacity:1"
   d="m 7.5,163 0,5"
   id="path3010"
   inkscape:connector-curvature="0"
   sodipodi:nodetypes="cc" /><path
   sodipodi:nodetypes="cc"
   inkscape:connector-curvature="0"
   id="path3012"
   d="m 102.5,163 0,5"
   style="fill:none;stroke:#000000;stroke-width:1px;stroke-linecap:butt;stroke-linejoin:miter;stroke-opacity:1" /><path
   style="fill:none;stroke:#000000;stroke-width:1px;stroke-linecap:butt;stroke-linejoin:miter;stroke-opacity:1"
   d="m 198.5,163 0,5"
   id="path3014"
   inkscape:connector-curvature="0"
   sodipodi:nodetypes="cc" /><path
   sodipodi:nodetypes="cc"
   inkscape:connector-curvature="0"
   id="path3016"
   d="m 293.5,163 0,5"
   style="fill:none;stroke:#000000;stroke-width:1px;stroke-linecap:butt;stroke-linejoin:miter;stroke-opacity:1" /><path
   style="fill:none;stroke:#000000;stroke-width:1px;stroke-linecap:butt;stroke-linejoin:miter;stroke-opacity:1"
   d="m 389.5,163 0,5"
   id="path3018"
   inkscape:connector-curvature="0"
   sodipodi:nodetypes="cc" /><path
   sodipodi:nodetypes="cc"
   inkscape:connector-curvature="0"
   id="path3020"
   d="m 484.5,163 0,5"
   style="fill:none;stroke:#000000;stroke-width:1px;stroke-linecap:butt;stroke-linejoin:miter;stroke-opacity:1" /><path
   sodipodi:nodetypes="ccscc"
   inkscape:connector-curvature="0"
   id="path3024"
   d="m 422,163 0,-1.5 c 13.5,0.25 -1,-0.05 6,0.2 19.9935,0.71405 56.5,1.3 56.5,1.3 z"
   style="fill:#0000ff;fill-opacity:1;stroke:none" /></svg>