<?xml version="1.0" encoding="UTF-8" standalone="no"?>
<!-- Generator: Adobe Fireworks CS6, Export SVG Extension by Aaron Beall (http://fireworks.abeall.com) . Version: 0.6.1  -->

<svg
   xmlns:dc="http://purl.org/dc/elements/1.1/"
   xmlns:cc="http://creativecommons.org/ns#"
   xmlns:rdf="http://www.w3.org/1999/02/22-rdf-syntax-ns#"
   xmlns:svg="http://www.w3.org/2000/svg"
   xmlns="http://www.w3.org/2000/svg"
   xmlns:sodipodi="http://sodipodi.sourceforge.net/DTD/sodipodi-0.dtd"
   xmlns:inkscape="http://www.inkscape.org/namespaces/inkscape"
   id="complementVenn-Page%201"
   viewBox="0 0 478 97"
   style="background-color:#ffffff00"
   version="1.1"
   xml:space="preserve"
   x="0px"
   y="0px"
   width="478px"
   height="97px"
   inkscape:version="0.48.2 r9819"
   sodipodi:docname="complementVenn.svg"><metadata
   id="metadata48"><rdf:RDF><cc:Work
       rdf:about=""><dc:format>image/svg+xml</dc:format><dc:type
         rdf:resource="http://purl.org/dc/dcmitype/StillImage" /></cc:Work></rdf:RDF></metadata><defs
   id="defs46" /><sodipodi:namedview
   pagecolor="#ffffff"
   bordercolor="#666666"
   borderopacity="1"
   objecttolerance="10"
   gridtolerance="10"
   guidetolerance="10"
   inkscape:pageopacity="0"
   inkscape:pageshadow="2"
   inkscape:window-width="1147"
   inkscape:window-height="750"
   id="namedview44"
   showgrid="false"
   inkscape:zoom="2"
   inkscape:cx="239"
   inkscape:cy="48.5"
   inkscape:window-x="0"
   inkscape:window-y="0"
   inkscape:window-maximized="0"
   inkscape:current-layer="complementVenn-Page%201" />
	<rect
   x="0"
   y="0"
   width="138"
   height="97"
   stroke="#000000"
   stroke-width="1"
   fill="#9797a6"
   id="rect3" />
	<path
   id="Ellipse"
   d="M 22 48.5 C 22 33.312 34.312 21 49.5 21 C 64.688 21 77 33.312 77 48.5 C 77 63.688 64.688 76 49.5 76 C 34.312 76 22 63.688 22 48.5 Z"
   stroke="#000000"
   stroke-width="1"
   fill="#ffffff" />
	<text
   x="150"
   y="56"
   width="13"
   style="font-size:16px;text-align:left;color:#000000;fill:#000000;font-family:Arial"
   id="text6"><tspan
     id="tspan8">=</tspan></text>

	<rect
   x="173"
   y="0"
   width="138"
   height="97"
   stroke="#000000"
   stroke-width="1"
   fill="#9797a6"
   id="rect10" />
	<path
   id="Ellipse2"
   d="M 195 48.5 C 195 33.312 207.312 21 222.5 21 C 237.688 21 250 33.312 250 48.5 C 250 63.688 237.688 76 222.5 76 C 207.312 76 195 63.688 195 48.5 Z"
   stroke="#000000"
   stroke-width="1"
   fill="none" />
	<text
   x="317"
   y="56"
   width="14"
   style="font-size:16px;text-align:left;color:#000000;fill:#000000;font-family:Arial"
   id="text13"><tspan
     id="tspan15">–</tspan></text>

	<rect
   x="340"
   y="0"
   width="138"
   height="97"
   stroke="#000000"
   stroke-width="1"
   fill="#ffffff"
   id="rect17" />
	<path
   id="Ellipse3"
   d="M 362 48.5 C 362 33.312 374.312 21 389.5 21 C 404.688 21 417 33.312 417 48.5 C 417 63.688 404.688 76 389.5 76 C 374.312 76 362 63.688 362 48.5 Z"
   stroke="#000000"
   stroke-width="1"
   fill="#9697a6" />
	<text
   x="7"
   y="20"
   width="15"
   style="font-size:16px;text-align:left;color:#000000;fill:#000000;font-family:Arial"
   id="text20"><tspan
     id="tspan22">S</tspan></text>

	<text
   x="180"
   y="20"
   width="15"
   style="font-size:16px;text-align:left;color:#000000;fill:#000000;font-family:Arial"
   id="text24"><tspan
     id="tspan26">S</tspan></text>

	<text
   x="346"
   y="20"
   width="15"
   style="font-size:16px;text-align:left;color:#000000;fill:#000000;font-family:Arial"
   id="text28"><tspan
     id="tspan30">S</tspan></text>

	<text
   x="44"
   y="54"
   width="16"
   style="font-size:16px;text-align:left;color:#000000;fill:#000000;font-family:Arial"
   id="text32"><tspan
     id="tspan34">A</tspan></text>

	<text
   x="217"
   y="54"
   width="16"
   style="font-size:16px;text-align:left;color:#000000;fill:#000000;font-family:Arial"
   id="text36"><tspan
     id="tspan38">A</tspan></text>

	<text
   x="383"
   y="54"
   width="16"
   style="font-size:16px;text-align:left;color:#000000;fill:#000000;font-family:Arial"
   id="text40"><tspan
     id="tspan42">A</tspan></text>

</svg>