<?xml version="1.0" encoding="UTF-8" standalone="no"?>
<!-- Generator: Adobe Fireworks CS6, Export SVG Extension by Aaron Beall (http://fireworks.abeall.com) . Version: 0.6.1  -->

<svg
   xmlns:dc="http://purl.org/dc/elements/1.1/"
   xmlns:cc="http://creativecommons.org/ns#"
   xmlns:rdf="http://www.w3.org/1999/02/22-rdf-syntax-ns#"
   xmlns:svg="http://www.w3.org/2000/svg"
   xmlns="http://www.w3.org/2000/svg"
   xmlns:sodipodi="http://sodipodi.sourceforge.net/DTD/sodipodi-0.dtd"
   xmlns:inkscape="http://www.inkscape.org/namespaces/inkscape"
   id="unionVenn-Page%201"
   viewBox="0 0 593 87"
   style="background-color:#ffffff00"
   version="1.1"
   xml:space="preserve"
   x="0px"
   y="0px"
   width="593px"
   height="87px"
   inkscape:version="0.48.2 r9819"
   sodipodi:docname="unionVenn.svg"><metadata
   id="metadata87"><rdf:RDF><cc:Work
       rdf:about=""><dc:format>image/svg+xml</dc:format><dc:type
         rdf:resource="http://purl.org/dc/dcmitype/StillImage" /></cc:Work></rdf:RDF></metadata><defs
   id="defs85" /><sodipodi:namedview
   pagecolor="#ffffff"
   bordercolor="#666666"
   borderopacity="1"
   objecttolerance="10"
   gridtolerance="10"
   guidetolerance="10"
   inkscape:pageopacity="0"
   inkscape:pageshadow="2"
   inkscape:window-width="1357"
   inkscape:window-height="830"
   id="namedview83"
   showgrid="false"
   inkscape:zoom="2"
   inkscape:cx="296.5"
   inkscape:cy="43.5"
   inkscape:window-x="0"
   inkscape:window-y="0"
   inkscape:window-maximized="0"
   inkscape:current-layer="unionVenn-Page%201" />
	<rect
   x="0"
   y="0"
   width="122"
   height="87"
   stroke="#000000"
   stroke-width="1"
   fill="#ffffff"
   id="rect3" />
	<rect
   x="157"
   y="0"
   width="122"
   height="87"
   stroke="#000000"
   stroke-width="1"
   fill="#ffffff"
   id="rect5" />
	<rect
   x="314"
   y="0"
   width="122"
   height="87"
   stroke="#000000"
   stroke-width="1"
   fill="#ffffff"
   id="rect7" />
	<rect
   x="471"
   y="0"
   width="122"
   height="87"
   stroke="#000000"
   stroke-width="1"
   fill="#ffffff"
   id="rect9" />
	<path
   id="Ellipse"
   d="M 19 46.5 C 19 31.312 31.312 19 46.5 19 C 61.688 19 74 31.312 74 46.5 C 74 61.688 61.688 74 46.5 74 C 31.312 74 19 61.688 19 46.5 Z"
   stroke="#000000"
   stroke-width="1"
   fill="#9697a6" />
	<path
   id="Ellipse2"
   d="M 49 46.5 C 49 31.312 61.312 19 76.5 19 C 91.688 19 104 31.312 104 46.5 C 104 61.688 91.688 74 76.5 74 C 61.312 74 49 61.688 49 46.5 Z"
   stroke="#000000"
   stroke-width="1"
   fill="#9697a6" />
	<path
   d="M 61.5 69.555 C 69.0256 64.6483 74 56.154 74 46.5 C 74 36.846 69.0256 28.3517 61.5 23.445 C 53.9744 28.3517 49 36.846 49 46.5 C 49 56.154 53.9744 64.6483 61.5 69.555 Z"
   stroke="#000000"
   stroke-width="1"
   fill="#9697a6"
   id="path13" />
	<text
   x="134"
   y="54"
   width="13"
   style="font-size:16px;text-align:left;color:#000000;fill:#000000;font-family:Arial"
   id="text15"><tspan
     id="tspan17">=</tspan></text>

	<path
   id="Ellipse3"
   d="M 175 46.5 C 175 31.312 187.312 19 202.5 19 C 217.688 19 230 31.312 230 46.5 C 230 61.688 217.688 74 202.5 74 C 187.312 74 175 61.688 175 46.5 Z"
   stroke="#000000"
   stroke-width="1"
   fill="#9597a6" />
	<path
   id="Ellipse4"
   d="M 205 46.5 C 205 31.312 217.312 19 232.5 19 C 247.688 19 260 31.312 260 46.5 C 260 61.688 247.688 74 232.5 74 C 217.312 74 205 61.688 205 46.5 Z"
   stroke="#000000"
   stroke-width="1"
   fill="none" />
	<text
   x="292"
   y="54"
   width="13"
   style="font-size:16px;text-align:left;color:#000000;fill:#000000;font-family:Arial"
   id="text21"><tspan
     id="tspan23">+</tspan></text>

	<text
   x="448"
   y="54"
   width="14"
   style="font-size:16px;text-align:left;color:#000000;fill:#000000;font-family:Arial"
   id="text25"><tspan
     id="tspan27">–</tspan></text>

	<path
   id="Ellipse5"
   d="M 362 46.5 C 362 31.312 374.312 19 389.5 19 C 404.688 19 417 31.312 417 46.5 C 417 61.688 404.688 74 389.5 74 C 374.312 74 362 61.688 362 46.5 Z"
   stroke="#000000"
   stroke-width="1"
   fill="#9697a6" />
	<path
   id="Ellipse6"
   d="M 489 46.5 C 489 31.312 501.312 19 516.5 19 C 531.688 19 544 31.312 544 46.5 C 544 61.688 531.688 74 516.5 74 C 501.312 74 489 61.688 489 46.5 Z"
   stroke="#000000"
   stroke-width="1"
   fill="none" />
	<path
   id="Ellipse7"
   d="M 519 46.5 C 519 31.312 531.312 19 546.5 19 C 561.688 19 574 31.312 574 46.5 C 574 61.688 561.688 74 546.5 74 C 531.312 74 519 61.688 519 46.5 Z"
   stroke="#000000"
   stroke-width="1"
   fill="none" />
	<text
   x="7"
   y="18"
   width="15"
   style="font-size:16px;text-align:left;color:#000000;fill:#000000;font-family:Arial"
   id="text32"><tspan
     id="tspan34">S</tspan></text>

	<text
   x="163"
   y="18"
   width="15"
   style="font-size:16px;text-align:left;color:#000000;fill:#000000;font-family:Arial"
   id="text36"><tspan
     id="tspan38">S</tspan></text>

	<text
   x="319"
   y="18"
   width="15"
   style="font-size:16px;text-align:left;color:#000000;fill:#000000;font-family:Arial"
   id="text40"><tspan
     id="tspan42">S</tspan></text>

	<text
   x="476"
   y="18"
   width="15"
   style="font-size:16px;text-align:left;color:#000000;fill:#000000;font-family:Arial"
   id="text44"><tspan
     id="tspan46">S</tspan></text>

	<text
   x="31"
   y="51"
   width="16"
   style="font-size:16px;text-align:left;color:#000000;fill:#000000;font-family:Arial"
   id="text48"><tspan
     id="tspan50">A</tspan></text>

	<text
   x="82"
   y="50"
   width="15"
   style="font-size:16px;text-align:left;color:#000000;fill:#000000;font-family:Arial"
   id="text52"><tspan
     id="tspan54">B</tspan></text>

	<text
   x="187"
   y="51"
   width="16"
   style="font-size:16px;text-align:left;color:#000000;fill:#000000;font-family:Arial"
   id="text56"><tspan
     id="tspan58">A</tspan></text>

	<text
   x="238"
   y="50"
   width="15"
   style="font-size:16px;text-align:left;color:#000000;fill:#000000;font-family:Arial"
   id="text60"><tspan
     id="tspan62">B</tspan></text>

	<text
   x="343"
   y="51"
   width="16"
   style="font-size:16px;text-align:left;color:#000000;fill:#000000;font-family:Arial"
   id="text64"><tspan
     id="tspan66">A</tspan></text>

	<text
   x="394"
   y="50"
   width="15"
   style="font-size:16px;text-align:left;color:#000000;fill:#000000;font-family:Arial"
   id="text68"><tspan
     id="tspan70">B</tspan></text>

	<text
   x="500"
   y="51"
   width="16"
   style="font-size:16px;text-align:left;color:#000000;fill:#000000;font-family:Arial"
   id="text72"><tspan
     id="tspan74">A</tspan></text>

	<text
   x="551"
   y="50"
   width="15"
   style="font-size:16px;text-align:left;color:#000000;fill:#000000;font-family:Arial"
   id="text76"><tspan
     id="tspan78">B</tspan></text>

	<path
   id="Ellipse8"
   d="M 332 46.5 C 332 31.312 344.312 19 359.5 19 C 374.688 19 387 31.312 387 46.5 C 387 61.688 374.688 74 359.5 74 C 344.312 74 332 61.688 332 46.5 Z"
   stroke="#000000"
   stroke-width="1"
   fill="none" />
	<path
   d="M 531.5 69.555 C 539.0256 64.6483 544 56.154 544 46.5 C 544 36.846 539.0256 28.3517 531.5 23.445 C 523.9744 28.3517 519 36.846 519 46.5 C 519 56.154 523.9744 64.6483 531.5 69.555 Z"
   stroke="#000000"
   stroke-width="1"
   fill="#9597a6"
   id="path81" />
</svg>