<?xml version="1.0" encoding="UTF-8" standalone="no"?>
<!-- Generator: Adobe Fireworks CS6, Export SVG Extension by Aaron Beall (http://fireworks.abeall.com) . Version: 0.6.1  -->

<svg
   xmlns:dc="http://purl.org/dc/elements/1.1/"
   xmlns:cc="http://creativecommons.org/ns#"
   xmlns:rdf="http://www.w3.org/1999/02/22-rdf-syntax-ns#"
   xmlns:svg="http://www.w3.org/2000/svg"
   xmlns="http://www.w3.org/2000/svg"
   xmlns:sodipodi="http://sodipodi.sourceforge.net/DTD/sodipodi-0.dtd"
   xmlns:inkscape="http://www.inkscape.org/namespaces/inkscape"
   id="quantiles-Page%201"
   viewBox="0 0 412 246"
   style="background-color:#ffffff00"
   version="1.1"
   xml:space="preserve"
   x="0px"
   y="0px"
   width="412px"
   height="246px"
   inkscape:version="0.48.2 r9819"
   sodipodi:docname="quantiles.svg"><metadata
   id="metadata69"><rdf:RDF><cc:Work
       rdf:about=""><dc:format>image/svg+xml</dc:format><dc:type
         rdf:resource="http://purl.org/dc/dcmitype/StillImage" /></cc:Work></rdf:RDF></metadata><defs
   id="defs67">
		
		
		
		
		
		
		
		
		
		
		
		
		
		
		
		
		
		
	</defs><sodipodi:namedview
   pagecolor="#ffffff"
   bordercolor="#666666"
   borderopacity="1"
   objecttolerance="10"
   gridtolerance="10"
   guidetolerance="10"
   inkscape:pageopacity="0"
   inkscape:pageshadow="2"
   inkscape:window-width="1126"
   inkscape:window-height="796"
   id="namedview65"
   showgrid="false"
   inkscape:zoom="2"
   inkscape:cx="186"
   inkscape:cy="123"
   inkscape:window-x="0"
   inkscape:window-y="0"
   inkscape:window-maximized="0"
   inkscape:current-layer="quantiles-Page%201" />
	<rect
   style="fill:#ffffff"
   id="rect4"
   height="205"
   width="402"
   y="4"
   x="4" /><path
   style="fill:#cacad9;stroke:#868695;stroke-width:1"
   inkscape:connector-curvature="0"
   id="path6"
   d="m 397,207 c 0,0 -61,-5 -103,-17 C 252,178 219,134 201,112 183,90 122,26 95,26 68,26 44,76 40,114 36,152 15.5,207.5 4.5,207.5 l 402,0" /><path
   style="fill:#7396ff;stroke:#679aff;stroke-width:1"
   inkscape:connector-curvature="0"
   id="path8"
   d="m 43,96.69 c -1.395,5.8983 -2.4129,11.7327 -3,17.31 -4,38 -24.5,93.5 -35.5,93.5 l 38.5,0 0,-110.81 z" /><path
   style="fill:#679aff;stroke:#579eff;stroke-width:1"
   inkscape:connector-curvature="0"
   id="path10"
   d="m 397,207 c 0,0 -61,-5 -103,-17 -8.6217,-2.4633 -16.6534,-6.1055 -24,-10.375 l 0,27.875 136.5,0 -9.5,-0.5 z" /><path
   style="fill:none;stroke:#000000;stroke-width:1"
   inkscape:connector-curvature="0"
   d="m 269.5,215.5 0,-36"
   id="Line" /><path
   style="fill:none;stroke:#000000;stroke-width:1"
   inkscape:connector-curvature="0"
   d="m 42.5,215.5 0,-117"
   id="Line2" /><path
   style="fill:none;stroke:#000000;stroke-width:1"
   inkscape:connector-curvature="0"
   d="m 4.5,207.5 402,0"
   id="Line3" /><text
   id="text15"
   style="font-size:18px;text-align:left;color:#000000;fill:#000000;font-family:Arial"
   width="45"
   y="148"
   x="100"><tspan
     id="tspan17">1 – α</tspan><tspan
     id="tspan19"
     style="font-family:Symbol" /></text>
<text
   id="text21"
   style="font-size:18px;text-align:left;color:#000000;fill:#000000;font-family:Arial"
   width="14"
   y="155"
   x="304"><tspan
     id="tspan23">2</tspan></text>
<text
   id="text25"
   style="font-size:18px;text-align:left;color:#000000;fill:#000000;font-family:Arial"
   width="14"
   y="125"
   x="14"><tspan
     id="tspan27">2</tspan></text>
<text
   id="text29"
   style="font-size:18px;text-align:left;color:#000000;fill:#000000;font-family:Symbol"
   width="15"
   y="134"
   x="295"><tspan
     id="tspan31"
     style="font-style:normal;font-variant:normal;font-weight:normal;font-stretch:normal;font-family:Arial;-inkscape-font-specification:Arial">α</tspan></text>
<text
   id="text33"
   style="font-size:18px;text-align:left;color:#000000;fill:#000000;font-family:Symbol"
   width="15"
   y="104"
   x="5"><tspan
     id="tspan35"
     style="font-style:normal;font-variant:normal;font-weight:normal;font-stretch:normal;font-family:Arial;-inkscape-font-specification:Arial">α</tspan></text>
<path
   style="fill:none;stroke:#000000;stroke-width:1"
   inkscape:connector-curvature="0"
   d="m 300.5,140.5 18,-7"
   id="Line4" /><path
   style="fill:none;stroke:#000000;stroke-width:1"
   inkscape:connector-curvature="0"
   d="m 10.5,110.5 18,-7"
   id="Line5" /><g
   id="Group%3A%20Arrowheads">
			<path
   style="fill:none;stroke:#000000;stroke-width:1"
   inkscape:connector-curvature="0"
   d="m 19.5,128.5 9,52"
   id="Line6" />
			<path
   style="fill:#000000"
   inkscape:connector-curvature="0"
   id="path41"
   d="M 30.1908,190.2693 22.5541,178.3978 28.5,180.5 l 4.893,-3.9782 -3.2022,13.7475 z" />
		</g><g
   id="Group%3A%20Arrowheads2">
			<path
   style="fill:none;stroke:#000000;stroke-width:1"
   inkscape:connector-curvature="0"
   d="m 300.5,147.5 -15,42"
   id="Line7" />
			<path
   style="fill:#000000"
   inkscape:connector-curvature="0"
   id="path45"
   d="m 282.1654,198.8369 -0.8075,-14.0926 4.1421,4.7557 6.2171,-1.056 -9.5517,10.3929 z" />
		</g><text
   id="text47"
   style="font-size:18px;text-align:left;color:#000000;fill:#000000;font-family:Arial"
   width="38"
   y="234"
   x="29"
   dy="0 5">D<tspan
   style="font-size:14px"
   id="tspan3083">α/2</tspan></text>
<text
   id="text55"
   style="font-size:18px;text-align:left;color:#000000;fill:#000000;font-family:Arial"
   width="54"
   y="234"
   x="256">D<tspan
   id="tspan59"
   style="font-size:14px"
   dy="5">1–α/2</tspan></text>

</svg>